<svg width="510" height="260" viewBox="0 0 510 260" fill="none" xmlns="http://www.w3.org/2000/svg">
<mask id="path-1-inside-1_99_1307" fill="white">
<path d="M0 16C0 7.16344 7.16344 0 16 0H494C502.837 0 510 7.16344 510 16V244C510 252.837 502.837 260 494 260H16C7.16344 260 0 252.837 0 244V16Z"/>
</mask>
<path d="M0 16C0 7.16344 7.16344 0 16 0H494C502.837 0 510 7.16344 510 16V244C510 252.837 502.837 260 494 260H16C7.16344 260 0 252.837 0 244V16Z" fill="#101828" fill-opacity="0.6"/>
<path d="M16 0V1H494V0V-1H16V0ZM510 16H509V244H510H511V16H510ZM494 260V259H16V260V261H494V260ZM0 244H1V16H0H-1V244H0ZM16 260V259C7.71573 259 1 252.284 1 244H0H-1C-1 253.389 6.61116 261 16 261V260ZM510 244H509C509 252.284 502.284 259 494 259V260V261C503.389 261 511 253.389 511 244H510ZM494 0V1C502.284 1 509 7.71573 509 16H510H511C511 6.61116 503.389 -1 494 -1V0ZM16 0V-1C6.61116 -1 -1 6.61116 -1 16H0H1C1 7.71573 7.71573 1 16 1V0Z" fill="#00B8DB" fill-opacity="0.3" mask="url(#path-1-inside-1_99_1307)"/>
<mask id="path-3-inside-2_99_1307" fill="white">
<path d="M25 39C25 31.268 31.268 25 39 25H153.656C161.388 25 167.656 31.268 167.656 39V101C167.656 108.732 161.388 115 153.656 115H39C31.268 115 25 108.732 25 101V39Z"/>
</mask>
<path d="M25 39C25 31.268 31.268 25 39 25H153.656C161.388 25 167.656 31.268 167.656 39V101C167.656 108.732 161.388 115 153.656 115H39C31.268 115 25 108.732 25 101V39Z" fill="#00B8DB" fill-opacity="0.1"/>
<path d="M39 25V26H153.656V25V24H39V25ZM167.656 39H166.656V101H167.656H168.656V39H167.656ZM153.656 115V114H39V115V116H153.656V115ZM25 101H26V39H25H24V101H25ZM39 115V114C31.8203 114 26 108.18 26 101H25H24C24 109.284 30.7157 116 39 116V115ZM167.656 101H166.656C166.656 108.18 160.836 114 153.656 114V115V116C161.941 116 168.656 109.284 168.656 101H167.656ZM153.656 25V26C160.836 26 166.656 31.8203 166.656 39H167.656H168.656C168.656 30.7157 161.941 24 153.656 24V25ZM39 25V24C30.7157 24 24 30.7157 24 39H25H26C26 31.8203 31.8203 26 39 26V25Z" fill="#00B8DB" fill-opacity="0.3" mask="url(#path-3-inside-2_99_1307)"/>
<path d="M57.1758 63.1768V67H42.7471C42.9033 65.5547 43.3721 64.1875 44.1533 62.8984C44.9346 61.5996 46.4775 59.8809 48.7822 57.7422C50.6377 56.0137 51.7754 54.8418 52.1953 54.2266C52.7617 53.377 53.0449 52.5371 53.0449 51.707C53.0449 50.7891 52.7959 50.0859 52.2979 49.5977C51.8096 49.0996 51.1309 48.8506 50.2617 48.8506C49.4023 48.8506 48.7188 49.1094 48.2109 49.627C47.7031 50.1445 47.4102 51.0039 47.332 52.2051L43.2305 51.7949C43.4746 49.5293 44.2412 47.9033 45.5303 46.917C46.8193 45.9307 48.4307 45.4375 50.3643 45.4375C52.4834 45.4375 54.1484 46.0088 55.3594 47.1514C56.5703 48.2939 57.1758 49.7148 57.1758 51.4141C57.1758 52.3809 57 53.3037 56.6484 54.1826C56.3066 55.0518 55.7598 55.9648 55.0078 56.9219C54.5098 57.5566 53.6113 58.4697 52.3125 59.6611C51.0137 60.8525 50.1885 61.6436 49.8369 62.0342C49.4951 62.4248 49.2168 62.8057 49.002 63.1768H57.1758ZM68.0449 67V62.6787H59.2559V59.0752L68.5723 45.4375H72.0293V59.0605H74.6953V62.6787H72.0293V67H68.0449ZM68.0449 59.0605V51.7217L63.1084 59.0605H68.0449ZM76.6729 49.6416V45.8184H90.75V48.8066C89.5879 49.9492 88.4062 51.5898 87.2051 53.7285C86.0039 55.8672 85.0859 58.1426 84.4512 60.5547C83.8262 62.957 83.5186 65.1055 83.5283 67H79.5586C79.627 64.0312 80.2373 61.0039 81.3896 57.918C82.5518 54.832 84.0996 52.0732 86.0332 49.6416H76.6729Z" fill="#00D3F3"/>
<path d="M42.9141 94V85.4102H44.0801L48.5918 92.1543V85.4102H49.6816V94H48.5156L44.0039 87.25V94H42.9141ZM55.7227 91.9961L56.8125 92.1309C56.6406 92.7676 56.3223 93.2617 55.8574 93.6133C55.3926 93.9648 54.7988 94.1406 54.0762 94.1406C53.166 94.1406 52.4434 93.8613 51.9082 93.3027C51.377 92.7402 51.1113 91.9531 51.1113 90.9414C51.1113 89.8945 51.3809 89.082 51.9199 88.5039C52.459 87.9258 53.1582 87.6367 54.0176 87.6367C54.8496 87.6367 55.5293 87.9199 56.0566 88.4863C56.584 89.0527 56.8477 89.8496 56.8477 90.877C56.8477 90.9395 56.8457 91.0332 56.8418 91.1582H52.2012C52.2402 91.8418 52.4336 92.3652 52.7812 92.7285C53.1289 93.0918 53.5625 93.2734 54.082 93.2734C54.4688 93.2734 54.7988 93.1719 55.0723 92.9688C55.3457 92.7656 55.5625 92.4414 55.7227 91.9961ZM52.2598 90.291H55.7344C55.6875 89.7676 55.5547 89.375 55.3359 89.1133C55 88.707 54.5645 88.5039 54.0293 88.5039C53.5449 88.5039 53.1367 88.666 52.8047 88.9902C52.4766 89.3145 52.2949 89.748 52.2598 90.291ZM59.291 94L57.3867 87.7773H58.4766L59.4668 91.3691L59.8359 92.7051C59.8516 92.6387 59.959 92.2109 60.1582 91.4219L61.1484 87.7773H62.2324L63.1641 91.3867L63.4746 92.5762L63.832 91.375L64.8984 87.7773H65.9238L63.9785 94H62.8828L61.8926 90.2734L61.6523 89.2129L60.3926 94H59.291ZM70.2422 94V85.4102H71.3789V92.9863H75.6094V94H70.2422ZM81.0938 91.9961L82.1836 92.1309C82.0117 92.7676 81.6934 93.2617 81.2285 93.6133C80.7637 93.9648 80.1699 94.1406 79.4473 94.1406C78.5371 94.1406 77.8145 93.8613 77.2793 93.3027C76.748 92.7402 76.4824 91.9531 76.4824 90.9414C76.4824 89.8945 76.752 89.082 77.291 88.5039C77.8301 87.9258 78.5293 87.6367 79.3887 87.6367C80.2207 87.6367 80.9004 87.9199 81.4277 88.4863C81.9551 89.0527 82.2188 89.8496 82.2188 90.877C82.2188 90.9395 82.2168 91.0332 82.2129 91.1582H77.5723C77.6113 91.8418 77.8047 92.3652 78.1523 92.7285C78.5 93.0918 78.9336 93.2734 79.4531 93.2734C79.8398 93.2734 80.1699 93.1719 80.4434 92.9688C80.7168 92.7656 80.9336 92.4414 81.0938 91.9961ZM77.6309 90.291H81.1055C81.0586 89.7676 80.9258 89.375 80.707 89.1133C80.3711 88.707 79.9355 88.5039 79.4004 88.5039C78.916 88.5039 78.5078 88.666 78.1758 88.9902C77.8477 89.3145 77.666 89.748 77.6309 90.291ZM87.5742 93.2324C87.1836 93.5645 86.8066 93.7988 86.4434 93.9355C86.084 94.0723 85.6973 94.1406 85.2832 94.1406C84.5996 94.1406 84.0742 93.9746 83.707 93.6426C83.3398 93.3066 83.1562 92.8789 83.1562 92.3594C83.1562 92.0547 83.2246 91.7773 83.3613 91.5273C83.502 91.2734 83.6836 91.0703 83.9062 90.918C84.1328 90.7656 84.3867 90.6504 84.668 90.5723C84.875 90.5176 85.1875 90.4648 85.6055 90.4141C86.457 90.3125 87.084 90.1914 87.4863 90.0508C87.4902 89.9062 87.4922 89.8145 87.4922 89.7754C87.4922 89.3457 87.3926 89.043 87.1934 88.8672C86.9238 88.6289 86.5234 88.5098 85.9922 88.5098C85.4961 88.5098 85.1289 88.5977 84.8906 88.7734C84.6562 88.9453 84.4824 89.252 84.3691 89.6934L83.3379 89.5527C83.4316 89.1113 83.5859 88.7559 83.8008 88.4863C84.0156 88.2129 84.3262 88.0039 84.7324 87.8594C85.1387 87.7109 85.6094 87.6367 86.1445 87.6367C86.6758 87.6367 87.1074 87.6992 87.4395 87.8242C87.7715 87.9492 88.0156 88.1074 88.1719 88.2988C88.3281 88.4863 88.4375 88.7246 88.5 89.0137C88.5352 89.1934 88.5527 89.5176 88.5527 89.9863V91.3926C88.5527 92.373 88.5742 92.9941 88.6172 93.2559C88.6641 93.5137 88.7539 93.7617 88.8867 94H87.7852C87.6758 93.7812 87.6055 93.5254 87.5742 93.2324ZM87.4863 90.877C87.1035 91.0332 86.5293 91.166 85.7637 91.2754C85.3301 91.3379 85.0234 91.4082 84.8438 91.4863C84.6641 91.5645 84.5254 91.6797 84.4277 91.832C84.3301 91.9805 84.2812 92.1465 84.2812 92.3301C84.2812 92.6113 84.3867 92.8457 84.5977 93.0332C84.8125 93.2207 85.125 93.3145 85.5352 93.3145C85.9414 93.3145 86.3027 93.2266 86.6191 93.0508C86.9355 92.8711 87.168 92.627 87.3164 92.3184C87.4297 92.0801 87.4863 91.7285 87.4863 91.2637V90.877ZM94.2305 94V93.2148C93.8359 93.832 93.2559 94.1406 92.4902 94.1406C91.9941 94.1406 91.5371 94.0039 91.1191 93.7305C90.7051 93.457 90.3828 93.0762 90.1523 92.5879C89.9258 92.0957 89.8125 91.5312 89.8125 90.8945C89.8125 90.2734 89.916 89.7109 90.123 89.207C90.3301 88.6992 90.6406 88.3105 91.0547 88.041C91.4688 87.7715 91.9316 87.6367 92.4434 87.6367C92.8184 87.6367 93.1523 87.7168 93.4453 87.877C93.7383 88.0332 93.9766 88.2383 94.1602 88.4922V85.4102H95.209V94H94.2305ZM90.8965 90.8945C90.8965 91.6914 91.0645 92.2871 91.4004 92.6816C91.7363 93.0762 92.1328 93.2734 92.5898 93.2734C93.0508 93.2734 93.4414 93.0859 93.7617 92.7109C94.0859 92.332 94.248 91.7559 94.248 90.9824C94.248 90.1309 94.084 89.5059 93.7559 89.1074C93.4277 88.709 93.0234 88.5098 92.543 88.5098C92.0742 88.5098 91.6816 88.7012 91.3652 89.084C91.0527 89.4668 90.8965 90.0703 90.8965 90.8945ZM96.4512 92.1426L97.4941 91.9785C97.5527 92.3965 97.7148 92.7168 97.9805 92.9395C98.25 93.1621 98.625 93.2734 99.1055 93.2734C99.5898 93.2734 99.9492 93.1758 100.184 92.9805C100.418 92.7812 100.535 92.5488 100.535 92.2832C100.535 92.0449 100.432 91.8574 100.225 91.7207C100.08 91.627 99.7207 91.5078 99.1465 91.3633C98.373 91.168 97.8359 91 97.5352 90.8594C97.2383 90.7148 97.0117 90.5176 96.8555 90.2676C96.7031 90.0137 96.627 89.7344 96.627 89.4297C96.627 89.1523 96.6895 88.8965 96.8145 88.6621C96.9434 88.4238 97.1172 88.2266 97.3359 88.0703C97.5 87.9492 97.7227 87.8477 98.0039 87.7656C98.2891 87.6797 98.5938 87.6367 98.918 87.6367C99.4062 87.6367 99.834 87.707 100.201 87.8477C100.572 87.9883 100.846 88.1797 101.021 88.4219C101.197 88.6602 101.318 88.9805 101.385 89.3828L100.354 89.5234C100.307 89.2031 100.17 88.9531 99.9434 88.7734C99.7207 88.5938 99.4043 88.5039 98.9941 88.5039C98.5098 88.5039 98.1641 88.584 97.957 88.7441C97.75 88.9043 97.6465 89.0918 97.6465 89.3066C97.6465 89.4434 97.6895 89.5664 97.7754 89.6758C97.8613 89.7891 97.9961 89.8828 98.1797 89.957C98.2852 89.9961 98.5957 90.0859 99.1113 90.2266C99.8574 90.4258 100.377 90.5898 100.67 90.7188C100.967 90.8438 101.199 91.0273 101.367 91.2695C101.535 91.5117 101.619 91.8125 101.619 92.1719C101.619 92.5234 101.516 92.8555 101.309 93.168C101.105 93.4766 100.811 93.7168 100.424 93.8887C100.037 94.0566 99.5996 94.1406 99.1113 94.1406C98.3027 94.1406 97.6855 93.9727 97.2598 93.6367C96.8379 93.3008 96.5684 92.8027 96.4512 92.1426Z" fill="#99A1AF"/>
<mask id="path-7-inside-3_99_1307" fill="white">
<path d="M183.656 39C183.656 31.268 189.924 25 197.656 25H312.328C320.06 25 326.328 31.268 326.328 39V101C326.328 108.732 320.06 115 312.328 115H197.656C189.924 115 183.656 108.732 183.656 101V39Z"/>
</mask>
<path d="M183.656 39C183.656 31.268 189.924 25 197.656 25H312.328C320.06 25 326.328 31.268 326.328 39V101C326.328 108.732 320.06 115 312.328 115H197.656C189.924 115 183.656 108.732 183.656 101V39Z" fill="#00C950" fill-opacity="0.1"/>
<path d="M197.656 25V26H312.328V25V24H197.656V25ZM326.328 39H325.328V101H326.328H327.328V39H326.328ZM312.328 115V114H197.656V115V116H312.328V115ZM183.656 101H184.656V39H183.656H182.656V101H183.656ZM197.656 115V114C190.477 114 184.656 108.18 184.656 101H183.656H182.656C182.656 109.284 189.372 116 197.656 116V115ZM326.328 101H325.328C325.328 108.18 319.508 114 312.328 114V115V116C320.612 116 327.328 109.284 327.328 101H326.328ZM312.328 25V26C319.508 26 325.328 31.8203 325.328 39H326.328H327.328C327.328 30.7157 320.612 24 312.328 24V25ZM197.656 25V24C189.372 24 182.656 30.7157 182.656 39H183.656H184.656C184.656 31.8203 190.477 26 197.656 26V25Z" fill="#00C950" fill-opacity="0.3" mask="url(#path-7-inside-3_99_1307)"/>
<path d="M202.019 62.0342L206.003 61.5947C206.101 62.4053 206.354 63.0059 206.765 63.3965C207.175 63.7871 207.717 63.9824 208.391 63.9824C209.24 63.9824 209.963 63.5918 210.559 62.8105C211.154 62.0293 211.535 60.4082 211.701 57.9473C210.666 59.1484 209.372 59.749 207.819 59.749C206.13 59.749 204.67 59.0996 203.439 57.8008C202.219 56.4922 201.608 54.793 201.608 52.7031C201.608 50.5254 202.253 48.7725 203.542 47.4443C204.841 46.1064 206.491 45.4375 208.493 45.4375C210.671 45.4375 212.458 46.2822 213.854 47.9717C215.251 49.6514 215.949 52.4199 215.949 56.2773C215.949 60.2031 215.222 63.0352 213.767 64.7734C212.312 66.5117 210.417 67.3809 208.083 67.3809C206.403 67.3809 205.046 66.9365 204.011 66.0479C202.976 65.1494 202.312 63.8115 202.019 62.0342ZM211.335 53.04C211.335 51.7119 211.027 50.6816 210.412 49.9492C209.807 49.2168 209.104 48.8506 208.303 48.8506C207.541 48.8506 206.906 49.1533 206.398 49.7588C205.9 50.3545 205.651 51.3359 205.651 52.7031C205.651 54.0898 205.925 55.1104 206.472 55.7646C207.019 56.4092 207.702 56.7314 208.522 56.7314C209.313 56.7314 209.978 56.4189 210.515 55.7939C211.062 55.1689 211.335 54.251 211.335 53.04ZM222.16 55.4131C221.096 54.9639 220.319 54.3486 219.831 53.5674C219.353 52.7764 219.113 51.9121 219.113 50.9746C219.113 49.373 219.67 48.0498 220.783 47.0049C221.906 45.96 223.498 45.4375 225.559 45.4375C227.6 45.4375 229.182 45.96 230.305 47.0049C231.438 48.0498 232.004 49.373 232.004 50.9746C232.004 51.9707 231.745 52.8594 231.228 53.6406C230.71 54.4121 229.982 55.0029 229.045 55.4131C230.236 55.8916 231.14 56.5898 231.755 57.5078C232.38 58.4258 232.692 59.4854 232.692 60.6865C232.692 62.6689 232.058 64.2803 230.788 65.5205C229.528 66.7607 227.849 67.3809 225.749 67.3809C223.796 67.3809 222.17 66.8682 220.871 65.8428C219.338 64.6318 218.571 62.9717 218.571 60.8623C218.571 59.7002 218.859 58.6357 219.436 57.6689C220.012 56.6924 220.92 55.9404 222.16 55.4131ZM223.01 51.2676C223.01 52.0879 223.239 52.7275 223.698 53.1865C224.167 53.6455 224.787 53.875 225.559 53.875C226.34 53.875 226.965 53.6455 227.434 53.1865C227.902 52.7178 228.137 52.0732 228.137 51.2529C228.137 50.4814 227.902 49.8662 227.434 49.4072C226.975 48.9385 226.364 48.7041 225.603 48.7041C224.812 48.7041 224.182 48.9385 223.713 49.4072C223.244 49.876 223.01 50.4961 223.01 51.2676ZM222.629 60.4668C222.629 61.5996 222.917 62.4834 223.493 63.1182C224.079 63.7529 224.807 64.0703 225.676 64.0703C226.525 64.0703 227.229 63.7676 227.785 63.1621C228.342 62.5469 228.62 61.6631 228.62 60.5107C228.62 59.5049 228.337 58.6992 227.771 58.0938C227.204 57.4785 226.486 57.1709 225.617 57.1709C224.611 57.1709 223.859 57.5176 223.361 58.2109C222.873 58.9043 222.629 59.6562 222.629 60.4668ZM235.358 50.8281C235.358 48.9043 235.778 47.4785 236.618 46.5508C237.468 45.623 238.615 45.1592 240.061 45.1592C241.555 45.1592 242.722 45.623 243.562 46.5508C244.411 47.4688 244.836 48.8945 244.836 50.8281C244.836 52.752 244.411 54.1777 243.562 55.1055C242.722 56.0332 241.579 56.4971 240.134 56.4971C238.64 56.4971 237.468 56.0381 236.618 55.1201C235.778 54.1924 235.358 52.7617 235.358 50.8281ZM238.566 50.7988C238.566 52.1953 238.728 53.1328 239.05 53.6113C239.294 53.9629 239.631 54.1387 240.061 54.1387C240.5 54.1387 240.842 53.9629 241.086 53.6113C241.398 53.1328 241.555 52.1953 241.555 50.7988C241.555 49.4023 241.398 48.4697 241.086 48.001C240.842 47.6396 240.5 47.459 240.061 47.459C239.631 47.459 239.294 47.6348 239.05 47.9863C238.728 48.4648 238.566 49.4023 238.566 50.7988ZM243.195 67.8203H240.148L251.589 45.1592H254.548L243.195 67.8203ZM249.846 62.1807C249.846 60.2568 250.266 58.8311 251.105 57.9033C251.955 56.9756 253.112 56.5117 254.577 56.5117C256.052 56.5117 257.209 56.9756 258.049 57.9033C258.898 58.8311 259.323 60.2568 259.323 62.1807C259.323 64.1143 258.898 65.5449 258.049 66.4727C257.209 67.4004 256.066 67.8643 254.621 67.8643C253.127 67.8643 251.955 67.4004 251.105 66.4727C250.266 65.5449 249.846 64.1143 249.846 62.1807ZM253.054 62.166C253.054 63.5625 253.215 64.4951 253.537 64.9639C253.781 65.3252 254.118 65.5059 254.548 65.5059C254.987 65.5059 255.324 65.3301 255.559 64.9785C255.881 64.5 256.042 63.5625 256.042 62.166C256.042 60.7695 255.886 59.832 255.573 59.3535C255.329 59.002 254.987 58.8262 254.548 58.8262C254.108 58.8262 253.771 59.002 253.537 59.3535C253.215 59.832 253.054 60.7695 253.054 62.166Z" fill="#05DF72"/>
<path d="M201.195 91.2402L202.268 91.1465C202.318 91.5762 202.436 91.9297 202.619 92.207C202.807 92.4805 203.096 92.7031 203.486 92.875C203.877 93.043 204.316 93.127 204.805 93.127C205.238 93.127 205.621 93.0625 205.953 92.9336C206.285 92.8047 206.531 92.6289 206.691 92.4062C206.855 92.1797 206.938 91.9336 206.938 91.668C206.938 91.3984 206.859 91.1641 206.703 90.9648C206.547 90.7617 206.289 90.5918 205.93 90.4551C205.699 90.3652 205.189 90.2266 204.4 90.0391C203.611 89.8477 203.059 89.668 202.742 89.5C202.332 89.2852 202.025 89.0195 201.822 88.7031C201.623 88.3828 201.523 88.0254 201.523 87.6309C201.523 87.1973 201.646 86.793 201.893 86.418C202.139 86.0391 202.498 85.752 202.971 85.5566C203.443 85.3613 203.969 85.2637 204.547 85.2637C205.184 85.2637 205.744 85.3672 206.229 85.5742C206.717 85.7773 207.092 86.0781 207.354 86.4766C207.615 86.875 207.756 87.3262 207.775 87.8301L206.686 87.9121C206.627 87.3691 206.428 86.959 206.088 86.6816C205.752 86.4043 205.254 86.2656 204.594 86.2656C203.906 86.2656 203.404 86.3926 203.088 86.6465C202.775 86.8965 202.619 87.1992 202.619 87.5547C202.619 87.8633 202.73 88.1172 202.953 88.3164C203.172 88.5156 203.742 88.7207 204.664 88.9316C205.59 89.1387 206.225 89.3203 206.568 89.4766C207.068 89.707 207.438 90 207.676 90.3555C207.914 90.707 208.033 91.1133 208.033 91.5742C208.033 92.0312 207.902 92.4629 207.641 92.8691C207.379 93.2715 207.002 93.5859 206.51 93.8125C206.021 94.0352 205.471 94.1465 204.857 94.1465C204.08 94.1465 203.428 94.0332 202.9 93.8066C202.377 93.5801 201.965 93.2402 201.664 92.7871C201.367 92.3301 201.211 91.8145 201.195 91.2402ZM213.529 94V93.0859C213.045 93.7891 212.387 94.1406 211.555 94.1406C211.188 94.1406 210.844 94.0703 210.523 93.9297C210.207 93.7891 209.971 93.6133 209.814 93.4023C209.662 93.1875 209.555 92.9258 209.492 92.6172C209.449 92.4102 209.428 92.082 209.428 91.6328V87.7773H210.482V91.2285C210.482 91.7793 210.504 92.1504 210.547 92.3418C210.613 92.6191 210.754 92.8379 210.969 92.998C211.184 93.1543 211.449 93.2324 211.766 93.2324C212.082 93.2324 212.379 93.1523 212.656 92.9922C212.934 92.8281 213.129 92.6074 213.242 92.3301C213.359 92.0488 213.418 91.6426 213.418 91.1113V87.7773H214.473V94H213.529ZM220.191 91.7207L221.229 91.8555C221.115 92.5703 220.824 93.1309 220.355 93.5371C219.891 93.9395 219.318 94.1406 218.639 94.1406C217.787 94.1406 217.102 93.8633 216.582 93.3086C216.066 92.75 215.809 91.9512 215.809 90.9121C215.809 90.2402 215.92 89.6523 216.143 89.1484C216.365 88.6445 216.703 88.2676 217.156 88.0176C217.613 87.7637 218.109 87.6367 218.645 87.6367C219.32 87.6367 219.873 87.8086 220.303 88.1523C220.732 88.4922 221.008 88.9766 221.129 89.6055L220.104 89.7637C220.006 89.3457 219.832 89.0312 219.582 88.8203C219.336 88.6094 219.037 88.5039 218.686 88.5039C218.154 88.5039 217.723 88.6953 217.391 89.0781C217.059 89.457 216.893 90.0586 216.893 90.8828C216.893 91.7188 217.053 92.3262 217.373 92.7051C217.693 93.084 218.111 93.2734 218.627 93.2734C219.041 93.2734 219.387 93.1465 219.664 92.8926C219.941 92.6387 220.117 92.248 220.191 91.7207ZM226.191 91.7207L227.229 91.8555C227.115 92.5703 226.824 93.1309 226.355 93.5371C225.891 93.9395 225.318 94.1406 224.639 94.1406C223.787 94.1406 223.102 93.8633 222.582 93.3086C222.066 92.75 221.809 91.9512 221.809 90.9121C221.809 90.2402 221.92 89.6523 222.143 89.1484C222.365 88.6445 222.703 88.2676 223.156 88.0176C223.613 87.7637 224.109 87.6367 224.645 87.6367C225.32 87.6367 225.873 87.8086 226.303 88.1523C226.732 88.4922 227.008 88.9766 227.129 89.6055L226.104 89.7637C226.006 89.3457 225.832 89.0312 225.582 88.8203C225.336 88.6094 225.037 88.5039 224.686 88.5039C224.154 88.5039 223.723 88.6953 223.391 89.0781C223.059 89.457 222.893 90.0586 222.893 90.8828C222.893 91.7188 223.053 92.3262 223.373 92.7051C223.693 93.084 224.111 93.2734 224.627 93.2734C225.041 93.2734 225.387 93.1465 225.664 92.8926C225.941 92.6387 226.117 92.248 226.191 91.7207ZM232.391 91.9961L233.48 92.1309C233.309 92.7676 232.99 93.2617 232.525 93.6133C232.061 93.9648 231.467 94.1406 230.744 94.1406C229.834 94.1406 229.111 93.8613 228.576 93.3027C228.045 92.7402 227.779 91.9531 227.779 90.9414C227.779 89.8945 228.049 89.082 228.588 88.5039C229.127 87.9258 229.826 87.6367 230.686 87.6367C231.518 87.6367 232.197 87.9199 232.725 88.4863C233.252 89.0527 233.516 89.8496 233.516 90.877C233.516 90.9395 233.514 91.0332 233.51 91.1582H228.869C228.908 91.8418 229.102 92.3652 229.449 92.7285C229.797 93.0918 230.23 93.2734 230.75 93.2734C231.137 93.2734 231.467 93.1719 231.74 92.9688C232.014 92.7656 232.23 92.4414 232.391 91.9961ZM228.928 90.291H232.402C232.355 89.7676 232.223 89.375 232.004 89.1133C231.668 88.707 231.232 88.5039 230.697 88.5039C230.213 88.5039 229.805 88.666 229.473 88.9902C229.145 89.3145 228.963 89.748 228.928 90.291ZM234.389 92.1426L235.432 91.9785C235.49 92.3965 235.652 92.7168 235.918 92.9395C236.188 93.1621 236.562 93.2734 237.043 93.2734C237.527 93.2734 237.887 93.1758 238.121 92.9805C238.355 92.7812 238.473 92.5488 238.473 92.2832C238.473 92.0449 238.369 91.8574 238.162 91.7207C238.018 91.627 237.658 91.5078 237.084 91.3633C236.311 91.168 235.773 91 235.473 90.8594C235.176 90.7148 234.949 90.5176 234.793 90.2676C234.641 90.0137 234.564 89.7344 234.564 89.4297C234.564 89.1523 234.627 88.8965 234.752 88.6621C234.881 88.4238 235.055 88.2266 235.273 88.0703C235.438 87.9492 235.66 87.8477 235.941 87.7656C236.227 87.6797 236.531 87.6367 236.855 87.6367C237.344 87.6367 237.771 87.707 238.139 87.8477C238.51 87.9883 238.783 88.1797 238.959 88.4219C239.135 88.6602 239.256 88.9805 239.322 89.3828L238.291 89.5234C238.244 89.2031 238.107 88.9531 237.881 88.7734C237.658 88.5938 237.342 88.5039 236.932 88.5039C236.447 88.5039 236.102 88.584 235.895 88.7441C235.688 88.9043 235.584 89.0918 235.584 89.3066C235.584 89.4434 235.627 89.5664 235.713 89.6758C235.799 89.7891 235.934 89.8828 236.117 89.957C236.223 89.9961 236.533 90.0859 237.049 90.2266C237.795 90.4258 238.314 90.5898 238.607 90.7188C238.904 90.8438 239.137 91.0273 239.305 91.2695C239.473 91.5117 239.557 91.8125 239.557 92.1719C239.557 92.5234 239.453 92.8555 239.246 93.168C239.043 93.4766 238.748 93.7168 238.361 93.8887C237.975 94.0566 237.537 94.1406 237.049 94.1406C236.24 94.1406 235.623 93.9727 235.197 93.6367C234.775 93.3008 234.506 92.8027 234.389 92.1426ZM240.389 92.1426L241.432 91.9785C241.49 92.3965 241.652 92.7168 241.918 92.9395C242.188 93.1621 242.562 93.2734 243.043 93.2734C243.527 93.2734 243.887 93.1758 244.121 92.9805C244.355 92.7812 244.473 92.5488 244.473 92.2832C244.473 92.0449 244.369 91.8574 244.162 91.7207C244.018 91.627 243.658 91.5078 243.084 91.3633C242.311 91.168 241.773 91 241.473 90.8594C241.176 90.7148 240.949 90.5176 240.793 90.2676C240.641 90.0137 240.564 89.7344 240.564 89.4297C240.564 89.1523 240.627 88.8965 240.752 88.6621C240.881 88.4238 241.055 88.2266 241.273 88.0703C241.438 87.9492 241.66 87.8477 241.941 87.7656C242.227 87.6797 242.531 87.6367 242.855 87.6367C243.344 87.6367 243.771 87.707 244.139 87.8477C244.51 87.9883 244.783 88.1797 244.959 88.4219C245.135 88.6602 245.256 88.9805 245.322 89.3828L244.291 89.5234C244.244 89.2031 244.107 88.9531 243.881 88.7734C243.658 88.5938 243.342 88.5039 242.932 88.5039C242.447 88.5039 242.102 88.584 241.895 88.7441C241.688 88.9043 241.584 89.0918 241.584 89.3066C241.584 89.4434 241.627 89.5664 241.713 89.6758C241.799 89.7891 241.934 89.8828 242.117 89.957C242.223 89.9961 242.533 90.0859 243.049 90.2266C243.795 90.4258 244.314 90.5898 244.607 90.7188C244.904 90.8438 245.137 91.0273 245.305 91.2695C245.473 91.5117 245.557 91.8125 245.557 92.1719C245.557 92.5234 245.453 92.8555 245.246 93.168C245.043 93.4766 244.748 93.7168 244.361 93.8887C243.975 94.0566 243.537 94.1406 243.049 94.1406C242.24 94.1406 241.623 93.9727 241.197 93.6367C240.775 93.3008 240.506 92.8027 240.389 92.1426ZM250.303 94V85.4102H254.111C254.877 85.4102 255.459 85.4883 255.857 85.6445C256.256 85.7969 256.574 86.0684 256.812 86.459C257.051 86.8496 257.17 87.2812 257.17 87.7539C257.17 88.3633 256.973 88.877 256.578 89.2949C256.184 89.7129 255.574 89.9785 254.75 90.0918C255.051 90.2363 255.279 90.3789 255.436 90.5195C255.768 90.8242 256.082 91.2051 256.379 91.6621L257.873 94H256.443L255.307 92.2129C254.975 91.6973 254.701 91.3027 254.486 91.0293C254.271 90.7559 254.078 90.5645 253.906 90.4551C253.738 90.3457 253.566 90.2695 253.391 90.2266C253.262 90.1992 253.051 90.1855 252.758 90.1855H251.439V94H250.303ZM251.439 89.2012H253.883C254.402 89.2012 254.809 89.1484 255.102 89.043C255.395 88.9336 255.617 88.7617 255.77 88.5273C255.922 88.2891 255.998 88.0312 255.998 87.7539C255.998 87.3477 255.85 87.0137 255.553 86.752C255.26 86.4902 254.795 86.3594 254.158 86.3594H251.439V89.2012ZM262.883 93.2324C262.492 93.5645 262.115 93.7988 261.752 93.9355C261.393 94.0723 261.006 94.1406 260.592 94.1406C259.908 94.1406 259.383 93.9746 259.016 93.6426C258.648 93.3066 258.465 92.8789 258.465 92.3594C258.465 92.0547 258.533 91.7773 258.67 91.5273C258.811 91.2734 258.992 91.0703 259.215 90.918C259.441 90.7656 259.695 90.6504 259.977 90.5723C260.184 90.5176 260.496 90.4648 260.914 90.4141C261.766 90.3125 262.393 90.1914 262.795 90.0508C262.799 89.9062 262.801 89.8145 262.801 89.7754C262.801 89.3457 262.701 89.043 262.502 88.8672C262.232 88.6289 261.832 88.5098 261.301 88.5098C260.805 88.5098 260.438 88.5977 260.199 88.7734C259.965 88.9453 259.791 89.252 259.678 89.6934L258.646 89.5527C258.74 89.1113 258.895 88.7559 259.109 88.4863C259.324 88.2129 259.635 88.0039 260.041 87.8594C260.447 87.7109 260.918 87.6367 261.453 87.6367C261.984 87.6367 262.416 87.6992 262.748 87.8242C263.08 87.9492 263.324 88.1074 263.48 88.2988C263.637 88.4863 263.746 88.7246 263.809 89.0137C263.844 89.1934 263.861 89.5176 263.861 89.9863V91.3926C263.861 92.373 263.883 92.9941 263.926 93.2559C263.973 93.5137 264.062 93.7617 264.195 94H263.094C262.984 93.7812 262.914 93.5254 262.883 93.2324ZM262.795 90.877C262.412 91.0332 261.838 91.166 261.072 91.2754C260.639 91.3379 260.332 91.4082 260.152 91.4863C259.973 91.5645 259.834 91.6797 259.736 91.832C259.639 91.9805 259.59 92.1465 259.59 92.3301C259.59 92.6113 259.695 92.8457 259.906 93.0332C260.121 93.2207 260.434 93.3145 260.844 93.3145C261.25 93.3145 261.611 93.2266 261.928 93.0508C262.244 92.8711 262.477 92.627 262.625 92.3184C262.738 92.0801 262.795 91.7285 262.795 91.2637V90.877ZM267.805 93.0566L267.957 93.9883C267.66 94.0508 267.395 94.082 267.16 94.082C266.777 94.082 266.48 94.0215 266.27 93.9004C266.059 93.7793 265.91 93.6211 265.824 93.4258C265.738 93.2266 265.695 92.8105 265.695 92.1777V88.5977H264.922V87.7773H265.695V86.2363L266.744 85.6035V87.7773H267.805V88.5977H266.744V92.2363C266.744 92.5371 266.762 92.7305 266.797 92.8164C266.836 92.9023 266.896 92.9707 266.979 93.0215C267.064 93.0723 267.186 93.0977 267.342 93.0977C267.459 93.0977 267.613 93.084 267.805 93.0566ZM273.102 91.9961L274.191 92.1309C274.02 92.7676 273.701 93.2617 273.236 93.6133C272.771 93.9648 272.178 94.1406 271.455 94.1406C270.545 94.1406 269.822 93.8613 269.287 93.3027C268.756 92.7402 268.49 91.9531 268.49 90.9414C268.49 89.8945 268.76 89.082 269.299 88.5039C269.838 87.9258 270.537 87.6367 271.396 87.6367C272.229 87.6367 272.908 87.9199 273.436 88.4863C273.963 89.0527 274.227 89.8496 274.227 90.877C274.227 90.9395 274.225 91.0332 274.221 91.1582H269.58C269.619 91.8418 269.812 92.3652 270.16 92.7285C270.508 93.0918 270.941 93.2734 271.461 93.2734C271.848 93.2734 272.178 93.1719 272.451 92.9688C272.725 92.7656 272.941 92.4414 273.102 91.9961ZM269.639 90.291H273.113C273.066 89.7676 272.934 89.375 272.715 89.1133C272.379 88.707 271.943 88.5039 271.408 88.5039C270.924 88.5039 270.516 88.666 270.184 88.9902C269.855 89.3145 269.674 89.748 269.639 90.291Z" fill="#99A1AF"/>
<mask id="path-11-inside-4_99_1307" fill="white">
<path d="M342.328 39C342.328 31.268 348.596 25 356.328 25H471C478.732 25 485 31.268 485 39V101C485 108.732 478.732 115 471 115H356.328C348.596 115 342.328 108.732 342.328 101V39Z"/>
</mask>
<path d="M342.328 39C342.328 31.268 348.596 25 356.328 25H471C478.732 25 485 31.268 485 39V101C485 108.732 478.732 115 471 115H356.328C348.596 115 342.328 108.732 342.328 101V39Z" fill="#AD46FF" fill-opacity="0.1"/>
<path d="M356.328 25V26H471V25V24H356.328V25ZM485 39H484V101H485H486V39H485ZM471 115V114H356.328V115V116H471V115ZM342.328 101H343.328V39H342.328H341.328V101H342.328ZM356.328 115V114C349.148 114 343.328 108.18 343.328 101H342.328H341.328C341.328 109.284 348.044 116 356.328 116V115ZM485 101H484C484 108.18 478.18 114 471 114V115V116C479.284 116 486 109.284 486 101H485ZM471 25V26C478.18 26 484 31.8203 484 39H485H486C486 30.7157 479.284 24 471 24V25ZM356.328 25V24C348.044 24 341.328 30.7157 341.328 39H342.328H343.328C343.328 31.8203 349.148 26 356.328 26V25Z" fill="#AD46FF" fill-opacity="0.3" mask="url(#path-11-inside-4_99_1307)"/>
<path d="M371.135 67H367.019V51.4873C365.515 52.8936 363.742 53.9336 361.701 54.6074V50.8721C362.775 50.5205 363.942 49.8564 365.202 48.8799C366.462 47.8936 367.326 46.7461 367.795 45.4375H371.135V67ZM391.203 63.1768V67H376.774C376.931 65.5547 377.399 64.1875 378.181 62.8984C378.962 61.5996 380.505 59.8809 382.81 57.7422C384.665 56.0137 385.803 54.8418 386.223 54.2266C386.789 53.377 387.072 52.5371 387.072 51.707C387.072 50.7891 386.823 50.0859 386.325 49.5977C385.837 49.0996 385.158 48.8506 384.289 48.8506C383.43 48.8506 382.746 49.1094 382.238 49.627C381.73 50.1445 381.438 51.0039 381.359 52.2051L377.258 51.7949C377.502 49.5293 378.269 47.9033 379.558 46.917C380.847 45.9307 382.458 45.4375 384.392 45.4375C386.511 45.4375 388.176 46.0088 389.387 47.1514C390.598 48.2939 391.203 49.7148 391.203 51.4141C391.203 52.3809 391.027 53.3037 390.676 54.1826C390.334 55.0518 389.787 55.9648 389.035 56.9219C388.537 57.5566 387.639 58.4697 386.34 59.6611C385.041 60.8525 384.216 61.6436 383.864 62.0342C383.522 62.4248 383.244 62.8057 383.029 63.1768H391.203ZM399.597 63.9092V58.3281H393.972V54.4756H399.597V48.8945H403.347V54.4756H408.986V58.3281H403.347V63.9092H399.597Z" fill="#C27AFF"/>
<path d="M360.289 94V85.4102H361.426V88.9375H365.891V85.4102H367.027V94H365.891V89.9512H361.426V94H360.289ZM368.398 90.8887C368.398 89.7363 368.719 88.8828 369.359 88.3281C369.895 87.8672 370.547 87.6367 371.316 87.6367C372.172 87.6367 372.871 87.918 373.414 88.4805C373.957 89.0391 374.229 89.8125 374.229 90.8008C374.229 91.6016 374.107 92.2324 373.865 92.6934C373.627 93.1504 373.277 93.5059 372.816 93.7598C372.359 94.0137 371.859 94.1406 371.316 94.1406C370.445 94.1406 369.74 93.8613 369.201 93.3027C368.666 92.7441 368.398 91.9395 368.398 90.8887ZM369.482 90.8887C369.482 91.6855 369.656 92.2832 370.004 92.6816C370.352 93.0762 370.789 93.2734 371.316 93.2734C371.84 93.2734 372.275 93.0742 372.623 92.6758C372.971 92.2773 373.145 91.6699 373.145 90.8535C373.145 90.084 372.969 89.502 372.617 89.1074C372.27 88.709 371.836 88.5098 371.316 88.5098C370.789 88.5098 370.352 88.707 370.004 89.1016C369.656 89.4961 369.482 90.0918 369.482 90.8887ZM379.549 94V93.0859C379.064 93.7891 378.406 94.1406 377.574 94.1406C377.207 94.1406 376.863 94.0703 376.543 93.9297C376.227 93.7891 375.99 93.6133 375.834 93.4023C375.682 93.1875 375.574 92.9258 375.512 92.6172C375.469 92.4102 375.447 92.082 375.447 91.6328V87.7773H376.502V91.2285C376.502 91.7793 376.523 92.1504 376.566 92.3418C376.633 92.6191 376.773 92.8379 376.988 92.998C377.203 93.1543 377.469 93.2324 377.785 93.2324C378.102 93.2324 378.398 93.1523 378.676 92.9922C378.953 92.8281 379.148 92.6074 379.262 92.3301C379.379 92.0488 379.438 91.6426 379.438 91.1113V87.7773H380.492V94H379.549ZM382.139 94V87.7773H383.088V88.7207C383.33 88.2793 383.553 87.9883 383.756 87.8477C383.963 87.707 384.189 87.6367 384.436 87.6367C384.791 87.6367 385.152 87.75 385.52 87.9766L385.156 88.9551C384.898 88.8027 384.641 88.7266 384.383 88.7266C384.152 88.7266 383.945 88.7969 383.762 88.9375C383.578 89.0742 383.447 89.2656 383.369 89.5117C383.252 89.8867 383.193 90.2969 383.193 90.7422V94H382.139ZM385.725 92.1426L386.768 91.9785C386.826 92.3965 386.988 92.7168 387.254 92.9395C387.523 93.1621 387.898 93.2734 388.379 93.2734C388.863 93.2734 389.223 93.1758 389.457 92.9805C389.691 92.7812 389.809 92.5488 389.809 92.2832C389.809 92.0449 389.705 91.8574 389.498 91.7207C389.354 91.627 388.994 91.5078 388.42 91.3633C387.646 91.168 387.109 91 386.809 90.8594C386.512 90.7148 386.285 90.5176 386.129 90.2676C385.977 90.0137 385.9 89.7344 385.9 89.4297C385.9 89.1523 385.963 88.8965 386.088 88.6621C386.217 88.4238 386.391 88.2266 386.609 88.0703C386.773 87.9492 386.996 87.8477 387.277 87.7656C387.562 87.6797 387.867 87.6367 388.191 87.6367C388.68 87.6367 389.107 87.707 389.475 87.8477C389.846 87.9883 390.119 88.1797 390.295 88.4219C390.471 88.6602 390.592 88.9805 390.658 89.3828L389.627 89.5234C389.58 89.2031 389.443 88.9531 389.217 88.7734C388.994 88.5938 388.678 88.5039 388.268 88.5039C387.783 88.5039 387.438 88.584 387.23 88.7441C387.023 88.9043 386.92 89.0918 386.92 89.3066C386.92 89.4434 386.963 89.5664 387.049 89.6758C387.135 89.7891 387.27 89.8828 387.453 89.957C387.559 89.9961 387.869 90.0859 388.385 90.2266C389.131 90.4258 389.65 90.5898 389.943 90.7188C390.24 90.8438 390.473 91.0273 390.641 91.2695C390.809 91.5117 390.893 91.8125 390.893 92.1719C390.893 92.5234 390.789 92.8555 390.582 93.168C390.379 93.4766 390.084 93.7168 389.697 93.8887C389.311 94.0566 388.873 94.1406 388.385 94.1406C387.576 94.1406 386.959 93.9727 386.533 93.6367C386.111 93.3008 385.842 92.8027 385.725 92.1426ZM395.234 91.2402L396.307 91.1465C396.357 91.5762 396.475 91.9297 396.658 92.207C396.846 92.4805 397.135 92.7031 397.525 92.875C397.916 93.043 398.355 93.127 398.844 93.127C399.277 93.127 399.66 93.0625 399.992 92.9336C400.324 92.8047 400.57 92.6289 400.73 92.4062C400.895 92.1797 400.977 91.9336 400.977 91.668C400.977 91.3984 400.898 91.1641 400.742 90.9648C400.586 90.7617 400.328 90.5918 399.969 90.4551C399.738 90.3652 399.229 90.2266 398.439 90.0391C397.65 89.8477 397.098 89.668 396.781 89.5C396.371 89.2852 396.064 89.0195 395.861 88.7031C395.662 88.3828 395.562 88.0254 395.562 87.6309C395.562 87.1973 395.686 86.793 395.932 86.418C396.178 86.0391 396.537 85.752 397.01 85.5566C397.482 85.3613 398.008 85.2637 398.586 85.2637C399.223 85.2637 399.783 85.3672 400.268 85.5742C400.756 85.7773 401.131 86.0781 401.393 86.4766C401.654 86.875 401.795 87.3262 401.814 87.8301L400.725 87.9121C400.666 87.3691 400.467 86.959 400.127 86.6816C399.791 86.4043 399.293 86.2656 398.633 86.2656C397.945 86.2656 397.443 86.3926 397.127 86.6465C396.814 86.8965 396.658 87.1992 396.658 87.5547C396.658 87.8633 396.77 88.1172 396.992 88.3164C397.211 88.5156 397.781 88.7207 398.703 88.9316C399.629 89.1387 400.264 89.3203 400.607 89.4766C401.107 89.707 401.477 90 401.715 90.3555C401.953 90.707 402.072 91.1133 402.072 91.5742C402.072 92.0312 401.941 92.4629 401.68 92.8691C401.418 93.2715 401.041 93.5859 400.549 93.8125C400.061 94.0352 399.51 94.1465 398.896 94.1465C398.119 94.1465 397.467 94.0332 396.939 93.8066C396.416 93.5801 396.004 93.2402 395.703 92.7871C395.406 92.3301 395.25 91.8145 395.234 91.2402ZM407.551 93.2324C407.16 93.5645 406.783 93.7988 406.42 93.9355C406.061 94.0723 405.674 94.1406 405.26 94.1406C404.576 94.1406 404.051 93.9746 403.684 93.6426C403.316 93.3066 403.133 92.8789 403.133 92.3594C403.133 92.0547 403.201 91.7773 403.338 91.5273C403.479 91.2734 403.66 91.0703 403.883 90.918C404.109 90.7656 404.363 90.6504 404.645 90.5723C404.852 90.5176 405.164 90.4648 405.582 90.4141C406.434 90.3125 407.061 90.1914 407.463 90.0508C407.467 89.9062 407.469 89.8145 407.469 89.7754C407.469 89.3457 407.369 89.043 407.17 88.8672C406.9 88.6289 406.5 88.5098 405.969 88.5098C405.473 88.5098 405.105 88.5977 404.867 88.7734C404.633 88.9453 404.459 89.252 404.346 89.6934L403.314 89.5527C403.408 89.1113 403.562 88.7559 403.777 88.4863C403.992 88.2129 404.303 88.0039 404.709 87.8594C405.115 87.7109 405.586 87.6367 406.121 87.6367C406.652 87.6367 407.084 87.6992 407.416 87.8242C407.748 87.9492 407.992 88.1074 408.148 88.2988C408.305 88.4863 408.414 88.7246 408.477 89.0137C408.512 89.1934 408.529 89.5176 408.529 89.9863V91.3926C408.529 92.373 408.551 92.9941 408.594 93.2559C408.641 93.5137 408.73 93.7617 408.863 94H407.762C407.652 93.7812 407.582 93.5254 407.551 93.2324ZM407.463 90.877C407.08 91.0332 406.506 91.166 405.74 91.2754C405.307 91.3379 405 91.4082 404.82 91.4863C404.641 91.5645 404.502 91.6797 404.404 91.832C404.307 91.9805 404.258 92.1465 404.258 92.3301C404.258 92.6113 404.363 92.8457 404.574 93.0332C404.789 93.2207 405.102 93.3145 405.512 93.3145C405.918 93.3145 406.279 93.2266 406.596 93.0508C406.912 92.8711 407.145 92.627 407.293 92.3184C407.406 92.0801 407.463 91.7285 407.463 91.2637V90.877ZM411.898 94L409.531 87.7773H410.645L411.98 91.5039C412.125 91.9062 412.258 92.3242 412.379 92.7578C412.473 92.4297 412.604 92.0352 412.771 91.5742L414.154 87.7773H415.238L412.883 94H411.898ZM420.43 91.9961L421.52 92.1309C421.348 92.7676 421.029 93.2617 420.564 93.6133C420.1 93.9648 419.506 94.1406 418.783 94.1406C417.873 94.1406 417.15 93.8613 416.615 93.3027C416.084 92.7402 415.818 91.9531 415.818 90.9414C415.818 89.8945 416.088 89.082 416.627 88.5039C417.166 87.9258 417.865 87.6367 418.725 87.6367C419.557 87.6367 420.236 87.9199 420.764 88.4863C421.291 89.0527 421.555 89.8496 421.555 90.877C421.555 90.9395 421.553 91.0332 421.549 91.1582H416.908C416.947 91.8418 417.141 92.3652 417.488 92.7285C417.836 93.0918 418.27 93.2734 418.789 93.2734C419.176 93.2734 419.506 93.1719 419.779 92.9688C420.053 92.7656 420.27 92.4414 420.43 91.9961ZM416.967 90.291H420.441C420.395 89.7676 420.262 89.375 420.043 89.1133C419.707 88.707 419.271 88.5039 418.736 88.5039C418.252 88.5039 417.844 88.666 417.512 88.9902C417.184 89.3145 417.002 89.748 416.967 90.291ZM426.887 94V93.2148C426.492 93.832 425.912 94.1406 425.146 94.1406C424.65 94.1406 424.193 94.0039 423.775 93.7305C423.361 93.457 423.039 93.0762 422.809 92.5879C422.582 92.0957 422.469 91.5312 422.469 90.8945C422.469 90.2734 422.572 89.7109 422.779 89.207C422.986 88.6992 423.297 88.3105 423.711 88.041C424.125 87.7715 424.588 87.6367 425.1 87.6367C425.475 87.6367 425.809 87.7168 426.102 87.877C426.395 88.0332 426.633 88.2383 426.816 88.4922V85.4102H427.865V94H426.887ZM423.553 90.8945C423.553 91.6914 423.721 92.2871 424.057 92.6816C424.393 93.0762 424.789 93.2734 425.246 93.2734C425.707 93.2734 426.098 93.0859 426.418 92.7109C426.742 92.332 426.904 91.7559 426.904 90.9824C426.904 90.1309 426.74 89.5059 426.412 89.1074C426.084 88.709 425.68 88.5098 425.199 88.5098C424.73 88.5098 424.338 88.7012 424.021 89.084C423.709 89.4668 423.553 90.0703 423.553 90.8945Z" fill="#99A1AF"/>
<path d="M25 206.609C25 201.087 29.4772 196.609 35 196.609H72.5C78.0228 196.609 82.5 201.087 82.5 206.609V235H25V206.609Z" fill="url(#paint0_linear_99_1307)"/>
<path d="M82.5 182.609C82.5 177.087 86.9772 172.609 92.5 172.609H130C135.523 172.609 140 177.087 140 182.609V235H82.5V182.609Z" fill="url(#paint1_linear_99_1307)"/>
<path d="M140 192.203C140 186.68 144.477 182.203 150 182.203H187.5C193.023 182.203 197.5 186.68 197.5 192.203V235H140V192.203Z" fill="url(#paint2_linear_99_1307)"/>
<path d="M197.5 168.203C197.5 162.68 201.977 158.203 207.5 158.203H245C250.523 158.203 255 162.68 255 168.203V235H197.5V168.203Z" fill="url(#paint3_linear_99_1307)"/>
<path d="M255 177.812C255 172.29 259.477 167.812 265 167.812H302.5C308.023 167.812 312.5 172.29 312.5 177.812V235H255V177.812Z" fill="url(#paint4_linear_99_1307)"/>
<path d="M312.5 163.406C312.5 157.883 316.977 153.406 322.5 153.406H360C365.523 153.406 370 157.883 370 163.406V235H312.5V163.406Z" fill="url(#paint5_linear_99_1307)"/>
<path d="M370 173C370 167.477 374.477 163 380 163H417.5C423.023 163 427.5 167.477 427.5 173V235H370V173Z" fill="url(#paint6_linear_99_1307)"/>
<path d="M427.5 153.812C427.5 148.29 431.977 143.812 437.5 143.812H475C480.523 143.812 485 148.29 485 153.812V235H427.5V153.812Z" fill="url(#paint7_linear_99_1307)"/>
<defs>
<linearGradient id="paint0_linear_99_1307" x1="53.75" y1="235" x2="53.75" y2="196.609" gradientUnits="userSpaceOnUse">
<stop stop-color="#00B8DB"/>
<stop offset="1" stop-color="#2B7FFF"/>
</linearGradient>
<linearGradient id="paint1_linear_99_1307" x1="111.25" y1="235" x2="111.25" y2="172.609" gradientUnits="userSpaceOnUse">
<stop stop-color="#00B8DB"/>
<stop offset="1" stop-color="#2B7FFF"/>
</linearGradient>
<linearGradient id="paint2_linear_99_1307" x1="168.75" y1="235" x2="168.75" y2="182.203" gradientUnits="userSpaceOnUse">
<stop stop-color="#00B8DB"/>
<stop offset="1" stop-color="#2B7FFF"/>
</linearGradient>
<linearGradient id="paint3_linear_99_1307" x1="226.25" y1="235" x2="226.25" y2="158.203" gradientUnits="userSpaceOnUse">
<stop stop-color="#00B8DB"/>
<stop offset="1" stop-color="#2B7FFF"/>
</linearGradient>
<linearGradient id="paint4_linear_99_1307" x1="283.75" y1="235" x2="283.75" y2="167.812" gradientUnits="userSpaceOnUse">
<stop stop-color="#00B8DB"/>
<stop offset="1" stop-color="#2B7FFF"/>
</linearGradient>
<linearGradient id="paint5_linear_99_1307" x1="341.25" y1="235" x2="341.25" y2="153.406" gradientUnits="userSpaceOnUse">
<stop stop-color="#00B8DB"/>
<stop offset="1" stop-color="#2B7FFF"/>
</linearGradient>
<linearGradient id="paint6_linear_99_1307" x1="398.75" y1="235" x2="398.75" y2="163" gradientUnits="userSpaceOnUse">
<stop stop-color="#00B8DB"/>
<stop offset="1" stop-color="#2B7FFF"/>
</linearGradient>
<linearGradient id="paint7_linear_99_1307" x1="456.25" y1="235" x2="456.25" y2="143.812" gradientUnits="userSpaceOnUse">
<stop stop-color="#00B8DB"/>
<stop offset="1" stop-color="#2B7FFF"/>
</linearGradient>
</defs>
</svg>
