<svg width="510" height="174" viewBox="0 0 510 174" fill="none" xmlns="http://www.w3.org/2000/svg">
<mask id="path-1-inside-1_99_1247" fill="white">
<path d="M0 16C0 7.16345 7.16344 0 16 0H494C502.837 0 510 7.16344 510 16V158C510 166.837 502.837 174 494 174H16C7.16344 174 0 166.837 0 158V16Z"/>
</mask>
<path d="M0 16C0 7.16345 7.16344 0 16 0H494C502.837 0 510 7.16344 510 16V158C510 166.837 502.837 174 494 174H16C7.16344 174 0 166.837 0 158V16Z" fill="#101828" fill-opacity="0.6"/>
<path d="M16 0V1H494V0V-1H16V0ZM510 16H509V158H510H511V16H510ZM494 174V173H16V174V175H494V174ZM0 158H1V16H0H-1V158H0ZM16 174V173C7.71573 173 1 166.284 1 158H0H-1C-1 167.389 6.61116 175 16 175V174ZM510 158H509C509 166.284 502.284 173 494 173V174V175C503.389 175 511 167.389 511 158H510ZM494 0V1C502.284 1 509 7.71573 509 16H510H511C511 6.61116 503.389 -1 494 -1V0ZM16 0V-1C6.61116 -1 -1 6.61117 -1 16H0H1C1 7.71573 7.71573 1 16 1V0Z" fill="#00B8DB" fill-opacity="0.3" mask="url(#path-1-inside-1_99_1247)"/>
<mask id="path-3-inside-2_99_1247" fill="white">
<path d="M25 35C25 29.4772 29.4772 25 35 25H65C70.5228 25 75 29.4772 75 35V65C75 70.5228 70.5228 75 65 75H35C29.4772 75 25 70.5228 25 65V35Z"/>
</mask>
<path d="M25 35C25 29.4772 29.4772 25 35 25H65C70.5228 25 75 29.4772 75 35V65C75 70.5228 70.5228 75 65 75H35C29.4772 75 25 70.5228 25 65V35Z" fill="#00B8DB" fill-opacity="0.2"/>
<path d="M35 25V26H65V25V24H35V25ZM75 35H74V65H75H76V35H75ZM65 75V74H35V75V76H65V75ZM25 65H26V35H25H24V65H25ZM35 75V74C30.0294 74 26 69.9706 26 65H25H24C24 71.0751 28.9249 76 35 76V75ZM75 65H74C74 69.9706 69.9706 74 65 74V75V76C71.0751 76 76 71.0751 76 65H75ZM65 25V26C69.9706 26 74 30.0294 74 35H75H76C76 28.9249 71.0751 24 65 24V25ZM35 25V24C28.9249 24 24 28.9249 24 35H25H26C26 30.0294 30.0294 26 35 26V25Z" fill="#00B8DB" fill-opacity="0.4" mask="url(#path-3-inside-2_99_1247)"/>
<path d="M59 54H55C54.4477 54 54 54.4477 54 55V59C54 59.5523 54.4477 60 55 60H59C59.5523 60 60 59.5523 60 59V55C60 54.4477 59.5523 54 59 54Z" stroke="#00D3F2" stroke-width="2" stroke-linecap="round" stroke-linejoin="round"/>
<path d="M45 54H41C40.4477 54 40 54.4477 40 55V59C40 59.5523 40.4477 60 41 60H45C45.5523 60 46 59.5523 46 59V55C46 54.4477 45.5523 54 45 54Z" stroke="#00D3F2" stroke-width="2" stroke-linecap="round" stroke-linejoin="round"/>
<path d="M52 40H48C47.4477 40 47 40.4477 47 41V45C47 45.5523 47.4477 46 48 46H52C52.5523 46 53 45.5523 53 45V41C53 40.4477 52.5523 40 52 40Z" stroke="#00D3F2" stroke-width="2" stroke-linecap="round" stroke-linejoin="round"/>
<path d="M43 54V51C43 50.7348 43.1054 50.4804 43.2929 50.2929C43.4804 50.1054 43.7348 50 44 50H56C56.2652 50 56.5196 50.1054 56.7071 50.2929C56.8946 50.4804 57 50.7348 57 51V54" stroke="#00D3F2" stroke-width="2" stroke-linecap="round" stroke-linejoin="round"/>
<path d="M50 50V46" stroke="#00D3F2" stroke-width="2" stroke-linecap="round" stroke-linejoin="round"/>
<mask id="path-10-inside-3_99_1247" fill="white">
<path d="M75 49H435V51H75V49Z"/>
</mask>
<path d="M75 49V51H435V49V47H75V49Z" fill="#00B8DB" fill-opacity="0.4" mask="url(#path-10-inside-3_99_1247)"/>
<mask id="path-12-inside-4_99_1247" fill="white">
<path d="M435 35C435 29.4772 439.477 25 445 25H475C480.523 25 485 29.4772 485 35V65C485 70.5228 480.523 75 475 75H445C439.477 75 435 70.5228 435 65V35Z"/>
</mask>
<path d="M435 35C435 29.4772 439.477 25 445 25H475C480.523 25 485 29.4772 485 35V65C485 70.5228 480.523 75 475 75H445C439.477 75 435 70.5228 435 65V35Z" fill="#2B7FFF" fill-opacity="0.2"/>
<path d="M445 25V26H475V25V24H445V25ZM485 35H484V65H485H486V35H485ZM475 75V74H445V75V76H475V75ZM435 65H436V35H435H434V65H435ZM445 75V74C440.029 74 436 69.9706 436 65H435H434C434 71.0751 438.925 76 445 76V75ZM485 65H484C484 69.9706 479.971 74 475 74V75V76C481.075 76 486 71.0751 486 65H485ZM475 25V26C479.971 26 484 30.0294 484 35H485H486C486 28.9249 481.075 24 475 24V25ZM445 25V24C438.925 24 434 28.9249 434 35H435H436C436 30.0294 440.029 26 445 26V25Z" fill="#2B7FFF" fill-opacity="0.4" mask="url(#path-12-inside-4_99_1247)"/>
<path d="M468 51C468 56 464.5 58.5 460.34 59.95C460.122 60.0238 459.886 60.0202 459.67 59.94C455.5 58.5 452 56 452 51V44C452 43.7347 452.105 43.4804 452.293 43.2929C452.48 43.1053 452.735 43 453 43C455 43 457.5 41.8 459.24 40.28C459.452 40.099 459.721 39.9995 460 39.9995C460.279 39.9995 460.548 40.099 460.76 40.28C462.51 41.81 465 43 467 43C467.265 43 467.52 43.1053 467.707 43.2929C467.895 43.4804 468 43.7347 468 44V51Z" stroke="#51A2FF" stroke-width="2" stroke-linecap="round" stroke-linejoin="round"/>
<mask id="path-15-inside-5_99_1247" fill="white">
<path d="M25 109C25 103.477 29.4772 99 35 99H65C70.5228 99 75 103.477 75 109V139C75 144.523 70.5228 149 65 149H35C29.4772 149 25 144.523 25 139V109Z"/>
</mask>
<path d="M25 109C25 103.477 29.4772 99 35 99H65C70.5228 99 75 103.477 75 109V139C75 144.523 70.5228 149 65 149H35C29.4772 149 25 144.523 25 139V109Z" fill="#AD46FF" fill-opacity="0.2"/>
<path d="M35 99V100H65V99V98H35V99ZM75 109H74V139H75H76V109H75ZM65 149V148H35V149V150H65V149ZM25 139H26V109H25H24V139H25ZM35 149V148C30.0294 148 26 143.971 26 139H25H24C24 145.075 28.9249 150 35 150V149ZM75 139H74C74 143.971 69.9706 148 65 148V149V150C71.0751 150 76 145.075 76 139H75ZM65 99V100C69.9706 100 74 104.029 74 109H75H76C76 102.925 71.0751 98 65 98V99ZM35 99V98C28.9249 98 24 102.925 24 109H25H26C26 104.029 30.0294 100 35 100V99Z" fill="#AD46FF" fill-opacity="0.4" mask="url(#path-15-inside-5_99_1247)"/>
<path d="M50 130V117" stroke="#C27AFF" stroke-width="2" stroke-linecap="round" stroke-linejoin="round"/>
<path d="M53 125C52.1348 124.747 51.3748 124.221 50.834 123.5C50.2932 122.778 50.0005 121.901 50 121C49.9995 121.901 49.7068 122.778 49.166 123.5C48.6252 124.221 47.8652 124.747 47 125" stroke="#C27AFF" stroke-width="2" stroke-linecap="round" stroke-linejoin="round"/>
<path d="M55.598 118.5C55.8281 118.101 55.9635 117.655 55.9936 117.196C56.0237 116.737 55.9478 116.277 55.7717 115.852C55.5956 115.427 55.324 115.048 54.9781 114.744C54.6321 114.441 54.221 114.221 53.7765 114.102C53.332 113.983 52.866 113.968 52.4147 114.057C51.9634 114.147 51.5387 114.34 51.1737 114.62C50.8086 114.9 50.5129 115.26 50.3093 115.673C50.1058 116.086 50 116.54 50 117C50 116.54 49.8942 116.086 49.6907 115.673C49.4871 115.26 49.1914 114.9 48.8263 114.62C48.4613 114.34 48.0366 114.147 47.5853 114.057C47.134 113.968 46.668 113.983 46.2235 114.102C45.779 114.221 45.3679 114.441 45.0219 114.744C44.676 115.048 44.4044 115.427 44.2283 115.852C44.0522 116.277 43.9763 116.737 44.0064 117.196C44.0365 117.655 44.1719 118.101 44.402 118.5" stroke="#C27AFF" stroke-width="2" stroke-linecap="round" stroke-linejoin="round"/>
<path d="M55.997 117.125C56.5848 117.276 57.1305 117.559 57.5928 117.952C58.055 118.346 58.4218 118.839 58.6652 119.395C58.9085 119.951 59.0222 120.555 58.9976 121.161C58.973 121.768 58.8107 122.361 58.523 122.895" stroke="#C27AFF" stroke-width="2" stroke-linecap="round" stroke-linejoin="round"/>
<path d="M56 130C56.8805 130 57.7364 129.709 58.4349 129.173C59.1335 128.637 59.6356 127.886 59.8635 127.035C60.0914 126.185 60.0323 125.283 59.6954 124.469C59.3585 123.656 58.7625 122.976 58 122.536" stroke="#C27AFF" stroke-width="2" stroke-linecap="round" stroke-linejoin="round"/>
<path d="M57.967 129.483C58.0371 130.025 57.9953 130.576 57.8441 131.101C57.693 131.627 57.4357 132.116 57.0882 132.538C56.7407 132.96 56.3104 133.306 55.8238 133.556C55.3372 133.805 54.8046 133.952 54.259 133.987C53.7134 134.023 53.1664 133.946 52.6516 133.762C52.1369 133.577 51.6654 133.289 51.2662 132.916C50.8671 132.542 50.5488 132.09 50.331 131.589C50.1132 131.087 50.0006 130.547 50 130C49.9994 130.547 49.8867 131.087 49.669 131.589C49.4512 132.09 49.1329 132.542 48.7338 132.916C48.3346 133.289 47.8631 133.577 47.3484 133.762C46.8336 133.946 46.2866 134.023 45.741 133.987C45.1954 133.952 44.6628 133.805 44.1762 133.556C43.6896 133.306 43.2593 132.96 42.9118 132.538C42.5643 132.116 42.307 131.627 42.1559 131.101C42.0047 130.576 41.9629 130.025 42.033 129.483" stroke="#C27AFF" stroke-width="2" stroke-linecap="round" stroke-linejoin="round"/>
<path d="M44 130C43.1195 130 42.2636 129.709 41.5651 129.173C40.8665 128.637 40.3644 127.886 40.1365 127.035C39.9086 126.185 39.9677 125.283 40.3046 124.469C40.6415 123.656 41.2375 122.976 42 122.536" stroke="#C27AFF" stroke-width="2" stroke-linecap="round" stroke-linejoin="round"/>
<path d="M44.003 117.125C43.4152 117.276 42.8695 117.559 42.4072 117.952C41.945 118.346 41.5782 118.839 41.3348 119.395C41.0915 119.951 40.9778 120.555 41.0024 121.161C41.027 121.768 41.1893 122.361 41.477 122.895" stroke="#C27AFF" stroke-width="2" stroke-linecap="round" stroke-linejoin="round"/>
<mask id="path-25-inside-6_99_1247" fill="white">
<path d="M75 123H435V125H75V123Z"/>
</mask>
<path d="M75 123V125H435V123V121H75V123Z" fill="#AD46FF" fill-opacity="0.4" mask="url(#path-25-inside-6_99_1247)"/>
<mask id="path-27-inside-7_99_1247" fill="white">
<path d="M435 109C435 103.477 439.477 99 445 99H475C480.523 99 485 103.477 485 109V139C485 144.523 480.523 149 475 149H445C439.477 149 435 144.523 435 139V109Z"/>
</mask>
<path d="M435 109C435 103.477 439.477 99 445 99H475C480.523 99 485 103.477 485 109V139C485 144.523 480.523 149 475 149H445C439.477 149 435 144.523 435 139V109Z" fill="#00C950" fill-opacity="0.2"/>
<path d="M445 99V100H475V99V98H445V99ZM485 109H484V139H485H486V109H485ZM475 149V148H445V149V150H475V149ZM435 139H436V109H435H434V139H435ZM445 149V148C440.029 148 436 143.971 436 139H435H434C434 145.075 438.925 150 445 150V149ZM485 139H484C484 143.971 479.971 148 475 148V149V150C481.075 150 486 145.075 486 139H485ZM475 99V100C479.971 100 484 104.029 484 109H485H486C486 102.925 481.075 98 475 98V99ZM445 99V98C438.925 98 434 102.925 434 109H435H436C436 104.029 440.029 100 445 100V99Z" fill="#00C950" fill-opacity="0.4" mask="url(#path-27-inside-7_99_1247)"/>
<path d="M470 124H467.52C467.083 123.999 466.658 124.141 466.309 124.405C465.961 124.669 465.708 125.039 465.59 125.46L463.24 133.82C463.225 133.872 463.193 133.918 463.15 133.95C463.107 133.982 463.054 134 463 134C462.946 134 462.893 133.982 462.85 133.95C462.807 133.918 462.775 133.872 462.76 133.82L457.24 114.18C457.225 114.128 457.193 114.082 457.15 114.05C457.107 114.018 457.054 114 457 114C456.946 114 456.893 114.018 456.85 114.05C456.807 114.082 456.775 114.128 456.76 114.18L454.41 122.54C454.292 122.959 454.041 123.329 453.695 123.592C453.348 123.856 452.925 123.999 452.49 124H450" stroke="#05DF72" stroke-width="2" stroke-linecap="round" stroke-linejoin="round"/>
</svg>
