<svg width="64" height="64" viewBox="0 0 64 64" fill="none" xmlns="http://www.w3.org/2000/svg">
<path d="M0 16C0 7.16344 7.16344 0 16 0H48C56.8366 0 64 7.16344 64 16V48C64 56.8366 56.8366 64 48 64H16C7.16344 64 0 56.8366 0 48V16Z" fill="#AD46FF" fill-opacity="0.1"/>
<path d="M37.3334 44V41.3333C37.3334 39.9188 36.7715 38.5623 35.7713 37.5621C34.7711 36.5619 33.4146 36 32.0001 36H24.0001C22.5856 36 21.229 36.5619 20.2288 37.5621C19.2287 38.5623 18.6667 39.9188 18.6667 41.3333V44" stroke="#C27AFF" stroke-width="2.66667" stroke-linecap="round" stroke-linejoin="round"/>
<path d="M37.3333 20.1707C38.4769 20.4671 39.4898 21.135 40.2128 22.0694C40.9359 23.0038 41.3282 24.1518 41.3282 25.3333C41.3282 26.5148 40.9359 27.6628 40.2128 28.5972C39.4898 29.5316 38.4769 30.1995 37.3333 30.496" stroke="#C27AFF" stroke-width="2.66667" stroke-linecap="round" stroke-linejoin="round"/>
<path d="M45.3333 44V41.3333C45.3324 40.1516 44.9391 39.0037 44.2151 38.0698C43.4911 37.1358 42.4774 36.4688 41.3333 36.1733" stroke="#C27AFF" stroke-width="2.66667" stroke-linecap="round" stroke-linejoin="round"/>
<path d="M28.0001 30.6667C30.9456 30.6667 33.3334 28.2789 33.3334 25.3333C33.3334 22.3878 30.9456 20 28.0001 20C25.0546 20 22.6667 22.3878 22.6667 25.3333C22.6667 28.2789 25.0546 30.6667 28.0001 30.6667Z" stroke="#C27AFF" stroke-width="2.66667" stroke-linecap="round" stroke-linejoin="round"/>
</svg>
