<svg width="64" height="64" viewBox="0 0 64 64" fill="none" xmlns="http://www.w3.org/2000/svg">
<path d="M0 16C0 7.16344 7.16344 0 16 0H48C56.8366 0 64 7.16344 64 16V48C64 56.8366 56.8366 64 48 64H16C7.16344 64 0 56.8366 0 48V16Z" fill="#00B8DB" fill-opacity="0.1"/>
<path d="M32 45.3333C39.3638 45.3333 45.3333 39.3638 45.3333 32C45.3333 24.6362 39.3638 18.6667 32 18.6667C24.6362 18.6667 18.6666 24.6362 18.6666 32C18.6666 39.3638 24.6362 45.3333 32 45.3333Z" stroke="#00D3F2" stroke-width="2.66667" stroke-linecap="round" stroke-linejoin="round"/>
<path d="M32 40C36.4183 40 40 36.4183 40 32C40 27.5817 36.4183 24 32 24C27.5817 24 24 27.5817 24 32C24 36.4183 27.5817 40 32 40Z" stroke="#00D3F2" stroke-width="2.66667" stroke-linecap="round" stroke-linejoin="round"/>
<path d="M32 34.6667C33.4728 34.6667 34.6667 33.4728 34.6667 32C34.6667 30.5272 33.4728 29.3333 32 29.3333C30.5273 29.3333 29.3334 30.5272 29.3334 32C29.3334 33.4728 30.5273 34.6667 32 34.6667Z" stroke="#00D3F2" stroke-width="2.66667" stroke-linecap="round" stroke-linejoin="round"/>
</svg>
