<svg width="192" height="43" viewBox="0 0 192 43" fill="none" xmlns="http://www.w3.org/2000/svg">
<defs>
  <filter id="glow" x="-50%" y="-50%" width="200%" height="200%">
    <feGaussianBlur stdDeviation="2" result="coloredBlur"/>
    <feMerge>
      <feMergeNode in="coloredBlur"/>
      <feMergeNode in="SourceGraphic"/>
    </feMerge>
  </filter>
</defs>
<path d="M39.162 0H3.28836C1.4707 0 -0.00280762 1.47351 -0.00280762 3.29117V39.1648C-0.00280762 40.9825 1.4707 42.456 3.28836 42.456H39.162C40.9797 42.456 42.4532 40.9825 42.4532 39.1648V3.29117C42.4532 1.47351 40.9797 0 39.162 0Z" fill="white"/>
<path d="M49.7458 5.80099H55.8481V36.7485" fill="none" stroke="white" stroke-width="1.45293"/>
<path d="M121.811 5.5104V20.4757M121.811 20.4757V37.039M121.811 20.4757H141.789M141.789 20.4757V5.5104M141.789 20.4757V37.039M148.618 15.2451V30.4282C148.618 39.2185 164.383 39.0005 164.383 30.4282V15.2451M170.63 5.21982V27.4497C170.63 39.8746 188.718 40.8894 190.317 27.9582C190.825 21.8559 186.481 11.4238 174.334 17.933" stroke="#005CB7" stroke-width="1.45293"/>
<path d="M59.6249 5.64872H69.5049M69.5049 5.64872H79.3848M69.5049 5.64872V36.6689M83.1624 29.9853L97.9097 19.8148C92.7518 11.0972 72.3381 16.8544 79.9659 31.9468C85.1965 39.7382 97.9097 38.8482 99.7259 26.9342M116.798 15.6739H111.059C102.196 15.6739 100.598 34.6529 110.551 36.0332L116.944 36.3782" stroke="white" stroke-width="1.45293"/>
<path d="M11.846 18.1002L11.7637 42.4548H14.7258V11.0242L5.75735 20.075V24.0243L11.846 18.1002Z" fill="#3B82F6" filter="url(#glow)"/>
<path d="M26.7399 27.3093V35.208H23.6956V13.1572H21.8032V12.6636H26.7399V25.6637C30.0311 20.3155 36.3666 23.0308 36.5311 26.7333V42.4486H33.4045V25.6637C31.5944 20.7269 27.5627 24.5118 26.7399 27.3093Z" fill="black"/>
<path d="M17.1153 26.4116V0H20.8179V5.26586L26.0837 0H31.0205L20.8179 9.87349V28.2217C20.9824 29.7027 22.5458 29.4559 23.6977 28.7977V29.2091C20.3243 31.4306 17.4445 28.88 17.1153 26.4116Z" fill="#005CB7"/>
</svg>
