<?xml version="1.0" encoding="UTF-8"?>
<svg version="1.1" xmlns="http://www.w3.org/2000/svg" width="3400" height="1283">
<path d="M0 0 C2.42163086 1.09472656 2.42163086 1.09472656 4.96484375 2.640625 C5.91810547 3.21039063 6.87136719 3.78015625 7.85351562 4.3671875 C8.87123047 4.98851562 9.88894531 5.60984375 10.9375 6.25 C13.11170104 7.54952246 15.28751688 8.84634662 17.46484375 10.140625 C18.5616748 10.79353516 19.65850586 11.44644531 20.78857422 12.11914062 C25.46620905 14.85872545 30.22391799 17.43714986 35 20 C43.67559391 24.67525044 52.19466267 29.57973636 60.6875 34.578125 C68.2289394 39.00230704 75.8443207 43.27700561 83.5 47.5 C93.1082291 52.80194139 102.62179419 58.23961151 112.08203125 63.80078125 C119.17161148 67.95900268 126.31806095 72.0036613 133.5 76 C142.72934771 81.13625165 151.87237125 86.40212624 160.98046875 91.75 C168.1052819 95.92243959 175.28546141 99.98495244 182.5 104 C191.72931402 109.13631389 200.87236973 114.40212535 209.98046875 119.75 C218.14203011 124.52958103 226.38444983 129.15348864 234.64892578 133.75219727 C241.77628267 137.72815635 248.83939092 141.80163998 255.875 145.9375 C264.34965015 150.91733395 272.89400177 155.75089103 281.5 160.5 C291.10813142 165.80212322 300.62178932 171.23960865 310.08203125 176.80078125 C317.1716117 180.95900281 324.31806248 185.0036577 331.5 189 C340.84553981 194.20097068 350.11586429 199.51634991 359.33203125 204.94335938 C364.97802377 208.26239641 370.65965059 211.51051071 376.37084961 214.71557617 C377.1072039 215.12927208 377.8435582 215.54296799 378.60222626 215.96920013 C380.40126517 216.97985669 382.20060195 217.989983 384 219 C384.29744409 275.42661788 384.52656874 331.85315786 384.66384928 388.28040537 C384.6801088 394.93954236 384.69691986 401.59867786 384.71411133 408.2578125 C384.71666113 409.25180862 384.71666113 409.25180862 384.71926244 410.26588548 C384.77466064 431.7450086 384.87230734 453.22368715 384.99186387 474.70254093 C385.1179771 497.40055991 385.19594883 520.09830209 385.22315043 542.79665995 C385.24100366 556.39534433 385.29742225 569.99275244 385.40291407 583.59104401 C385.47154236 592.91129709 385.49242212 602.23088878 385.47551791 611.55137628 C385.46717627 616.93235118 385.48010984 622.31109373 385.54967117 627.69167328 C385.61289391 632.61787176 385.61617328 637.54033595 385.57168563 642.46670562 C385.5661875 644.24887632 385.58273222 646.03127901 385.62348137 647.81299227 C385.73850263 653.15247501 385.66822295 657.89339101 384 663 C380.06099484 666.88543242 376.08863515 668.80555976 371 671 C369.02339502 672.09624433 367.05635857 673.21018273 365.10546875 674.3515625 C363.13402678 675.44490071 361.16133486 676.53598766 359.1875 677.625 C350.73400485 682.321951 342.33819752 687.10133478 334 692 C324.85101966 697.37222245 315.6259625 702.5907687 306.35546875 707.75 C299.18646043 711.74964599 292.07913415 715.84358252 285 720 C275.775649 725.41450699 266.47985528 730.68630694 257.13793945 735.89501953 C248.00862258 740.98624609 238.92905085 746.16042475 229.86132812 751.36035156 C224.98311773 754.15574926 220.10065746 756.94370875 215.21865845 759.73248291 C212.22763672 761.441155 209.23687939 763.15028974 206.24609375 764.859375 C205.03499474 765.55143448 203.82389448 766.24349177 202.61279297 766.93554688 C201.71545441 767.44831177 201.71545441 767.44831177 200.79998779 767.97143555 C139.49999998 803.00000001 139.49999998 803.00000001 137.75004578 803.99996948 C136.58322151 804.66672911 135.41640226 805.3334975 134.24958801 806.00027466 C131.33537354 807.66559088 128.42107258 809.33075537 125.5065918 810.99560547 C120.22724336 814.01154606 114.94856056 817.02862341 109.67306519 820.05130005 C106.71996984 821.7432784 103.76637011 823.43437464 100.8125 825.125 C100.23149536 825.45755798 99.65049072 825.79011597 99.05187988 826.13275146 C90.81214909 830.84669864 82.54206292 835.50373686 74.25 840.125 C65.15956163 845.1912975 56.15777572 850.39249267 47.18554688 855.66479492 C38.34622399 860.83968741 29.40576354 865.82312395 20.43408203 870.76342773 C19.37817871 871.34552002 18.32227539 871.9276123 17.234375 872.52734375 C16.20505859 873.09179199 15.17574219 873.65624023 14.11523438 874.23779297 C11.95606768 875.45917739 9.82302895 876.7274772 7.71289062 878.03173828 C6.65779297 878.68255371 5.60269531 879.33336914 4.515625 880.00390625 C3.57493164 880.60146729 2.63423828 881.19902832 1.66503906 881.81469727 C-1.5435287 883.24173982 -2.71658095 883.13857657 -6 882 C-7.88316732 881.10386972 -9.73183786 880.13348395 -11.55078125 879.11328125 C-13.16799072 878.21138062 -13.16799072 878.21138062 -14.81787109 877.29125977 C-15.98288841 876.63192227 -17.14776091 875.97232885 -18.3125 875.3125 C-19.52924924 874.62975186 -20.74621214 873.94738437 -21.96337891 873.26538086 C-30.63446188 868.39372863 -39.22501152 863.38827258 -47.79614258 858.34301758 C-55.62211531 853.75524562 -63.54429866 849.35678058 -71.5 845 C-81.4846687 839.53172136 -91.37195759 833.92306224 -101.18359375 828.1484375 C-108.23791483 824.00437705 -115.35065355 819.97764041 -122.5 816 C-131.72938138 810.86381058 -140.87237277 805.59787287 -149.98046875 800.25 C-157.1052819 796.07756041 -164.28546141 792.01504756 -171.5 788 C-180.71840459 782.86975745 -189.85252695 777.61322528 -198.94750977 772.26757812 C-207.4057017 767.31045731 -215.95100041 762.51774741 -224.54101562 757.79296875 C-225.51619141 757.25285156 -226.49136719 756.71273437 -227.49609375 756.15625 C-228.34357178 755.69025391 -229.1910498 755.22425781 -230.06420898 754.74414062 C-231.51742554 753.88079102 -231.51742554 753.88079102 -233 753 C-233.7307268 752.7130882 -234.4614536 752.42617639 -235.21432364 752.13057029 C-238.14043346 750.72726971 -239.8942153 749.49178948 -242 747 C-243.41818178 741.21719258 -243.23310474 735.47752176 -243.16976929 729.55227661 C-243.18300306 727.72960652 -243.200147 725.90696132 -243.2208668 724.08436096 C-243.26626608 719.07341703 -243.25534581 714.0639283 -243.23515821 709.05287719 C-243.22304714 703.64976207 -243.26255223 698.24698947 -243.29528809 692.84399414 C-243.35078469 682.25808243 -243.35692803 671.67269079 -243.34467439 661.08666171 C-243.33529063 652.48364978 -243.34196253 643.88079456 -243.36009598 635.2777977 C-243.36262997 634.05421075 -243.36516396 632.83062381 -243.36777473 631.56995847 C-243.37294137 629.08437949 -243.37812212 626.59880055 -243.38331683 624.11322163 C-243.429694 600.79374291 -243.41772925 577.47455997 -243.38797708 554.15507255 C-243.36253515 532.81445899 -243.40924286 511.47488954 -243.49020593 490.13441898 C-243.57267587 468.2299444 -243.6071192 446.325882 -243.58918345 424.42125213 C-243.57994506 412.12023517 -243.58973427 399.81993992 -243.64957809 387.51904678 C-243.69997458 377.04693205 -243.70497453 366.57600237 -243.65113668 356.10388412 C-243.62490389 350.75943635 -243.61964719 345.41714184 -243.67079544 340.07282639 C-243.71706852 335.17997059 -243.70335819 330.29108831 -243.64177115 325.3984351 C-243.63002368 323.62863704 -243.64023911 321.85852904 -243.67459039 320.08902539 C-243.77046467 314.77915515 -243.68058826 310.07090723 -242 305 C-238.05826935 301.12702254 -234.07965321 299.19813115 -229 297 C-227.023549 295.90347807 -225.05654477 294.78949894 -223.10546875 293.6484375 C-221.13402678 292.55509929 -219.16133486 291.46401234 -217.1875 290.375 C-208.73400485 285.678049 -200.33819752 280.89866522 -192 276 C-182.85101966 270.62777755 -173.6259625 265.4092313 -164.35546875 260.25 C-157.18646305 256.25035548 -150.07907237 252.15651956 -143 248 C-133.85086711 242.62803207 -124.62596869 237.40923475 -115.35546875 232.25 C-108.18646043 228.25035401 -101.07913415 224.15641748 -94 220 C-84.77933968 214.58765936 -75.48769869 209.31715621 -66.14892578 204.11157227 C-59.53573479 200.42430192 -52.94409773 196.70275254 -46.375 192.9375 C-38.84623854 188.62282629 -31.30442465 184.33210218 -23.75 180.0625 C-22.80946777 179.53068115 -21.86893555 178.9988623 -20.89990234 178.45092773 C-19.11611759 177.44345811 -17.32991039 176.44026249 -15.54101562 175.44189453 C-13.8468661 174.48055258 -12.16804893 173.49167594 -10.50585938 172.47607422 C-9.33506836 171.77442139 -9.33506836 171.77442139 -8.140625 171.05859375 C-7.1201709 170.42715454 -7.1201709 170.42715454 -6.07910156 169.78295898 C-3.29063437 168.73286336 -1.8255674 169.11428966 1 170 C3.42163086 171.20825195 3.42163086 171.20825195 5.96484375 172.73828125 C6.91810547 173.30482422 7.87136719 173.87136719 8.85351562 174.45507812 C9.87123047 175.06802734 10.88894531 175.68097656 11.9375 176.3125 C19.88241652 181.0275412 27.8619787 185.62644492 36 190 C44.67528013 194.67586065 53.19463759 199.5797216 61.6875 204.578125 C69.2289394 209.00230704 76.8443207 213.27700561 84.5 217.5 C94.1082291 222.80194139 103.62179419 228.23961151 113.08203125 233.80078125 C120.17161148 237.95900268 127.31806095 242.0036613 134.5 246 C143.72934771 251.13625165 152.87237125 256.40212624 161.98046875 261.75 C169.10528666 265.92244239 176.28556642 269.98475744 183.5 274 C206.82943627 286.99075105 206.82943627 286.99075105 216.60739231 293.10238838 C219.21282632 294.55970449 221.4767935 295.58968095 224.2398901 296.61292839 C229.17126908 298.63284087 233.55586788 300.83234333 237 305 C240.20368175 313.14771889 239.1434318 322.61643525 238.92993164 331.19580078 C238.92513316 333.88719199 238.92708508 336.57779382 238.93745422 339.26908875 C238.94634338 345.052688 238.8932944 350.83301236 238.79741096 356.61578751 C238.65888253 364.97597254 238.61494192 373.33458394 238.59361511 381.69579218 C238.55646334 395.26228408 238.44348667 408.82703233 238.2824707 422.39257812 C238.12628005 435.5653413 238.00602177 448.73762986 237.93383789 461.91113281 C237.92713844 463.13036665 237.92713844 463.13036665 237.92030365 464.37423147 C237.89811703 468.4521736 237.87663423 472.53011908 237.85550129 476.6080668 C237.67943905 510.40664211 237.38017337 544.20310686 237 578 C236.30551758 578.38744385 235.61103516 578.7748877 234.89550781 579.17407227 C231.67967817 580.96903459 228.46483649 582.76575956 225.25 584.5625 C224.15816406 585.17158203 223.06632813 585.78066406 221.94140625 586.40820312 C214.57923016 590.52492289 207.271959 594.72610948 200 599 C190.84871018 604.36831129 181.62604197 609.59072447 172.35546875 614.75 C165.18646305 618.74964452 158.07907237 622.84348044 151 627 C141.85086711 632.37196793 132.62596869 637.59076525 123.35546875 642.75 C116.18646305 646.74964452 109.07907237 650.84348044 102 655 C92.84945939 660.37279449 83.62331625 665.5927244 74.35107422 670.75219727 C67.2237139 674.72815826 60.16068642 678.80176728 53.125 682.9375 C43.34986212 688.67934085 33.48555907 694.24544251 23.55273438 699.70849609 C18.63307178 702.41488558 13.73142593 705.13025537 8.9140625 708.015625 C8.17542969 708.45285889 7.43679688 708.89009277 6.67578125 709.34057617 C5.3592924 710.12498411 4.05106751 710.9235293 2.75390625 711.73950195 C1.0390625 712.75390625 1.0390625 712.75390625 -2 714 C-5.34535373 712.92259085 -8.37414209 711.34524276 -11.45703125 709.671875 C-12.30950439 709.2092627 -13.16197754 708.74665039 -14.0402832 708.27001953 C-14.95511475 707.76841309 -15.86994629 707.26680664 -16.8125 706.75 C-17.77953857 706.22132324 -18.74657715 705.69264648 -19.74291992 705.14794922 C-27.84637207 700.69023661 -35.83639731 696.05145127 -43.80810547 691.36328125 C-52.08562279 686.50436123 -60.43959513 681.79312761 -68.8371582 677.14501953 C-70.73663019 676.09013333 -72.6213016 675.00808686 -74.48901463 673.89793968 C-77.13317693 672.46858011 -79.47936349 671.41545613 -82.26468563 670.38384438 C-87.18537545 668.36285267 -91.5634519 666.16088292 -95 662 C-98.19806778 653.88014365 -97.1435312 644.44745478 -96.92993164 635.89599609 C-96.92513313 633.2144559 -96.92708514 630.53370797 -96.93745422 627.8522644 C-96.94634321 622.08994098 -96.89329623 616.33090466 -96.79741096 610.56940842 C-96.65887998 602.23999182 -96.61494168 593.91215464 -96.59361511 585.58171101 C-96.55646371 572.06513008 -96.44348813 558.55029928 -96.2824707 545.03466797 C-96.12627903 531.91040773 -96.00602127 518.78662386 -95.93383789 505.66162109 C-95.92937159 504.85178553 -95.92490529 504.04194997 -95.92030365 503.20757394 C-95.89811702 499.14461589 -95.87663422 495.08165448 -95.85550129 491.01869082 C-95.67944023 457.34452494 -95.38017565 423.67247746 -95 390 C-94.19358912 389.53924639 -93.38717825 389.07849277 -92.55633068 388.60377693 C-89.52936572 386.87425511 -86.50242106 385.14469775 -83.47548962 383.41511726 C-82.17197867 382.670304 -80.86845991 381.92550439 -79.56493282 381.18071938 C-72.71471702 377.26675881 -65.86482637 373.35225053 -59.01953125 369.4296875 C-46.83161074 362.44825731 -34.6220708 355.51118604 -22.34301758 348.69091797 C-21.39193115 348.16127441 -20.44084473 347.63163086 -19.4609375 347.0859375 C-18.54795898 346.5815918 -17.63498047 346.07724609 -16.69433594 345.55761719 C-14.85638892 344.49508529 -13.05226067 343.37237385 -11.28222656 342.20019531 C-10.41823242 341.63139648 -9.55423828 341.06259766 -8.6640625 340.4765625 C-7.90818848 339.95400879 -7.15231445 339.43145508 -6.37353516 338.89306641 C-2.96748377 337.61150542 -1.27591194 338.56659083 2 340 C3.76090124 340.87531535 5.49821049 341.79943851 7.2109375 342.765625 C8.19618408 343.31879395 9.18143066 343.87196289 10.1965332 344.44189453 C11.24542725 345.03856934 12.29432129 345.63524414 13.375 346.25 C15.02471802 347.18175049 15.02471802 347.18175049 16.70776367 348.13232422 C28.2032776 354.64423384 39.62067491 361.28754145 51 368 C51.98129883 368.5765332 52.96259766 369.15306641 53.97363281 369.74707031 C56.79857082 371.40863299 59.61884006 373.07781426 62.4375 374.75 C63.29061768 375.25160645 64.14373535 375.75321289 65.02270508 376.27001953 C65.79767334 376.73263184 66.5726416 377.19524414 67.37109375 377.671875 C68.3909436 378.27660645 68.3909436 378.27660645 69.43139648 378.89355469 C71 380 71 380 72 382 C49.29970756 395.27536873 26.53577596 408.43767798 3.68847656 421.45849609 C2.59760742 422.08062988 1.50673828 422.70276367 0.3828125 423.34375 C-1.19838379 424.24480469 -1.19838379 424.24480469 -2.81152344 425.1640625 C-7.11476152 427.64188412 -11.38073034 430.18170031 -15.64111328 432.73242188 C-18 434 -18 434 -20 434 C-20 494.72 -20 555.44 -20 618 C-18.35 618.66 -16.7 619.32 -15 620 C-12.18209944 621.57882372 -9.40027062 623.20954847 -6.62109375 624.85546875 C-3.60207333 626.17375934 -3.01516368 626.01657481 0 625 C1.47471808 624.30031749 2.92672513 623.55174821 4.359375 622.76953125 C5.642677 622.07089966 5.642677 622.07089966 6.9519043 621.3581543 C7.87527588 620.84808838 8.79864746 620.33802246 9.75 619.8125 C10.72300049 619.27858643 11.69600098 618.74467285 12.69848633 618.19458008 C20.77205501 613.73750568 28.73492151 609.10180258 36.68261719 604.42504883 C44.22540084 599.99931266 51.84262206 595.72393139 59.5 591.5 C69.1082291 586.19805861 78.62179419 580.76038849 88.08203125 575.19921875 C95.17161291 571.04099648 102.31808853 566.99639071 109.5 563 C117.94925854 558.29715446 126.34210413 553.50988564 134.6875 548.625 C135.68346191 548.04218262 136.67942383 547.45936523 137.70556641 546.85888672 C139.60157125 545.74866524 141.49741249 544.63816431 143.39306641 543.52734375 C147.04918505 541.38530608 150.70696196 539.24656936 154.375 537.125 C155.43460938 536.50882813 156.49421875 535.89265625 157.5859375 535.2578125 C160 534 160 534 162 534 C161.67 472.95 161.34 411.9 161 349 C148.625 342.07 148.625 342.07 136 335 C124 328 124 328 118.015625 324.4921875 C110.93857982 320.36429485 103.78641496 316.37457722 96.63012695 312.38623047 C88.78902812 308.01248215 80.97984057 303.58487008 73.1875 299.125 C72.60604218 298.79230103 72.02458435 298.45960205 71.42550659 298.11682129 C66.68885265 295.40623208 61.95382098 292.69281413 57.21887207 289.97924805 C53.08417275 287.60983996 48.94883361 285.24155403 44.8125 282.875 C44.23741699 282.54594666 43.66233398 282.21689331 43.06982422 281.87786865 C31.57428464 275.30338148 20.04088356 268.79504296 8.45068359 262.38867188 C6.92328017 261.5231737 5.41187788 260.62797083 3.92822266 259.68945312 C0.51903382 257.48920344 0.51903382 257.48920344 -3.41601562 257.26391602 C-6.01049199 258.00298879 -8.09645176 258.93252131 -10.45703125 260.23046875 C-11.30934326 260.69622314 -12.16165527 261.16197754 -13.03979492 261.6418457 C-14.41228394 262.40694458 -14.41228394 262.40694458 -15.8125 263.1875 C-16.78098877 263.72141357 -17.74947754 264.25532715 -18.74731445 264.80541992 C-26.79922633 269.27051818 -34.74791839 273.90608223 -42.68286133 278.57495117 C-50.22543104 283.00091634 -57.84268475 287.2761032 -65.5 291.5 C-75.1082291 296.80194139 -84.62179419 302.23961151 -94.08203125 307.80078125 C-101.17161291 311.95900352 -108.31808853 316.00360929 -115.5 320 C-123.94925854 324.70284554 -132.34210413 329.49011436 -140.6875 334.375 C-142.18144287 335.24922607 -142.18144287 335.24922607 -143.70556641 336.14111328 C-145.60157125 337.25133476 -147.49741249 338.36183569 -149.39306641 339.47265625 C-153.04918505 341.61469392 -156.70696196 343.75343064 -160.375 345.875 C-161.43460938 346.49117187 -162.49421875 347.10734375 -163.5859375 347.7421875 C-166 349 -166 349 -168 349 C-168 465.82 -168 582.64 -168 703 C-166.35 703.66 -164.7 704.32 -163 705 C-161.28065956 705.89375257 -159.57690958 706.81790133 -157.88671875 707.765625 C-156.89881348 708.31855225 -155.9109082 708.87147949 -154.89306641 709.44116211 C-153.83522949 710.03807861 -152.77739258 710.63499512 -151.6875 711.25 C-150.57810059 711.87334229 -149.46870117 712.49668457 -148.32568359 713.13891602 C-139.88645955 717.89651512 -131.51753774 722.76913391 -123.16479492 727.67675781 C-115.67085332 732.06422863 -108.10282793 736.30447761 -100.5 740.5 C-90.89416765 745.80085451 -81.38325237 751.23779099 -71.92456055 756.79638672 C-63.73352965 761.59949722 -55.4652077 766.25437729 -47.17041016 770.87548828 C-40.33691058 774.68405978 -33.53481671 778.54295733 -26.75 782.4375 C-24.25140396 783.86363074 -21.75191652 785.28818185 -19.25195312 786.71191406 C-17.15696382 787.91021888 -15.07052916 789.12234732 -12.984375 790.3359375 C-11.82344729 790.9957262 -10.66203264 791.65465928 -9.5 792.3125 C-8.06140625 793.14201172 -8.06140625 793.14201172 -6.59375 793.98828125 C-3.43244486 795.2213807 -2.23957465 794.89731239 1 794 C2.88316732 793.10386972 4.73183786 792.13348395 6.55078125 791.11328125 C7.62908203 790.51193359 8.70738281 789.91058594 9.81835938 789.29101562 C10.9832197 788.6317697 12.14792933 787.97225746 13.3125 787.3125 C14.52778729 786.6304895 15.74328527 785.94885429 16.95898438 785.26757812 C25.67669216 780.36917149 34.3175264 775.34221471 42.93676758 770.27270508 C50.39512544 765.89874581 57.92982411 761.67700147 65.5 757.5 C75.10816063 752.19793158 84.62179088 746.76039043 94.08203125 741.19921875 C101.17161148 737.04099732 108.31806095 732.9963387 115.5 729 C123.7220259 724.424336 131.8858143 719.76429252 140 715 C149.14913289 709.62803207 158.37403131 704.40923475 167.64453125 699.25 C174.81353695 695.25035548 181.92092763 691.15651956 189 687 C198.14913289 681.62803207 207.37403131 676.40923475 216.64453125 671.25 C223.81353695 667.25035548 230.92092763 663.15651956 238 659 C247.1375292 653.63484524 256.35036092 648.42199216 265.609375 643.26977539 C274.11913696 638.52245608 282.54680097 633.6429258 290.94726562 628.70507812 C291.87216797 628.16173828 292.79707031 627.61839844 293.75 627.05859375 C294.94882813 626.35174438 294.94882813 626.35174438 296.171875 625.63061523 C300.08758764 623.37292836 304.0488521 621.19508217 308 619 C308.33 501.52 308.66 384.04 309 263 C307.02 262.34 305.04 261.68 303 261 C301.32032259 260.12892183 299.66721106 259.20490594 298.04296875 258.234375 C297.10839844 257.68136719 296.17382812 257.12835938 295.2109375 256.55859375 C294.21320312 255.96175781 293.21546875 255.36492187 292.1875 254.75 C283.68365376 249.72263435 275.13575698 244.79726527 266.5 240 C257.27025844 234.86447161 248.12761208 229.59786397 239.01953125 224.25 C231.8947181 220.07756041 224.71453859 216.01504756 217.5 212 C208.27068598 206.86368611 199.12763027 201.59787465 190.01953125 196.25 C182.8947181 192.07756041 175.71453859 188.01504756 168.5 184 C160.27799968 179.42427808 152.1142901 174.76412217 144 170 C134.93815741 164.68160725 125.80807301 159.50128891 116.63012695 154.38623047 C108.78902812 150.01248215 100.97984057 145.58487008 93.1875 141.125 C92.60604218 140.79230103 92.02458435 140.45960205 91.42550659 140.11682129 C86.68885265 137.40623208 81.95382098 134.69281413 77.21887207 131.97924805 C73.08417275 129.60983996 68.94883637 127.2415492 64.8125 124.875 C64.23276428 124.54328796 63.65302856 124.21157593 63.0557251 123.86981201 C53.7270619 118.53464021 44.36297672 113.26478232 34.97802734 108.02929688 C27.24980267 103.71413294 19.55855264 99.33730776 11.89672852 94.90527344 C10.33387417 94.00567458 8.76292913 93.11994158 7.18310547 92.25048828 C5 91 5 91 3.02392578 89.58935547 C0.9420282 88.22622709 -0.54350295 87.4320911 -3 87 C-7.05781701 88.11634789 -10.42267502 90.19765049 -14 92.375 C-15.04889404 92.97844238 -16.09778809 93.58188477 -17.1784668 94.20361328 C-20.47065614 96.10613847 -23.7354094 98.05058006 -27 100 C-28.98397767 101.15916356 -30.96960587 102.31550766 -32.95703125 103.46875 C-35.90378325 105.1806398 -38.84813452 106.89597216 -41.78515625 108.62451172 C-49.29060159 113.03955105 -56.8753744 117.29464006 -64.5 121.5 C-74.10825829 126.8018866 -83.62179576 132.23961244 -93.08203125 137.80078125 C-100.17161148 141.95900268 -107.31806095 146.0036613 -114.5 150 C-122.7220259 154.575664 -130.8858143 159.23570748 -139 164 C-148.14913289 169.37196793 -157.37403131 174.59076525 -166.64453125 179.75 C-173.81353695 183.74964452 -180.92092763 187.84348044 -188 192 C-197.15054061 197.37279449 -206.37668375 202.5927244 -215.64892578 207.75219727 C-222.77628267 211.72815635 -229.83939092 215.80163998 -236.875 219.9375 C-245.3496514 224.91733468 -253.8940189 229.75085743 -262.5 234.5 C-273.20390789 240.40729832 -283.79446816 246.48502722 -294.33203125 252.68359375 C-300.86035683 256.50340658 -307.43284367 260.24733924 -314 264 C-314.33 409.53 -314.66 555.06 -315 705 C-324.35526191 700.32236905 -333.39232478 695.77959764 -342.3125 690.4375 C-354.45162805 683.25966666 -366.75413598 676.40866533 -379.10766602 669.60888672 C-382.42084903 667.76589895 -385.70942248 665.88304856 -389 664 C-389.54946435 607.54856231 -389.9722955 551.09739098 -390.22556791 494.64380433 C-390.25558447 487.97737557 -390.28662034 481.310952 -390.31835938 474.64453125 C-390.32149759 473.98115688 -390.32463581 473.31778251 -390.32786912 472.63430588 C-390.43006782 451.14804481 -390.61027861 429.66330263 -390.8311333 408.17796105 C-391.06418865 385.46434601 -391.20795455 362.75167541 -391.25812387 340.03690398 C-391.29104008 326.43382115 -391.3949347 312.83509929 -391.58999521 299.23335935 C-391.71697644 289.90291062 -391.75518072 280.57471202 -391.72403306 271.24346219 C-391.70867049 265.85963093 -391.73198862 260.48340775 -391.8609314 255.10093498 C-392.5782363 223.64098455 -392.5782363 223.64098455 -386.6331501 215.9301877 C-380.9943086 211.06801181 -374.82948996 208.27736821 -367.80521679 205.96501756 C-364.06950447 204.67990191 -360.96581467 202.88816708 -357.59375 200.84375 C-355.56364619 199.72708035 -353.53242244 198.61244397 -351.5 197.5 C-341.89009477 192.20116457 -332.3781256 186.76034134 -322.91796875 181.19921875 C-315.82838852 177.04099732 -308.68193905 172.9963387 -301.5 169 C-293.2779741 164.424336 -285.1141857 159.76429252 -277 155 C-267.85086711 149.62803207 -258.62596869 144.40923475 -249.35546875 139.25 C-242.18646305 135.25035548 -235.07907237 131.15651956 -228 127 C-218.85086711 121.62803207 -209.62596869 116.40923475 -200.35546875 111.25 C-193.18646305 107.25035548 -186.07907237 103.15651956 -179 99 C-169.84945939 93.62720551 -160.62331625 88.4072756 -151.35107422 83.24780273 C-144.22371733 79.27184365 -137.16060908 75.19836002 -130.125 71.0625 C-120.52293764 65.42018141 -110.81779042 59.98597183 -101.06689453 54.60571289 C-93.65083815 50.50272794 -86.30491225 46.2974353 -79 42 C-69.37701007 36.34035947 -59.65482135 30.88014534 -49.8840332 25.48022461 C-42.78950243 21.55717328 -35.7225736 17.59120356 -28.6875 13.5625 C-27.41289917 12.83474365 -27.41289917 12.83474365 -26.11254883 12.09228516 C-22.3129175 9.91839097 -18.52705659 7.72643805 -14.76953125 5.48046875 C-14.12604736 5.10011475 -13.48256348 4.71976074 -12.81958008 4.32788086 C-11.14561171 3.33625731 -9.47870052 2.3327459 -7.8125 1.328125 C-4.75365438 -0.11632988 -3.32737606 -0.31328089 0 0 Z " fill="#FFFFFF" transform="translate(589,200)"/>
<path d="M0 0 C0.8916687 -0.00067474 1.7833374 -0.00134949 2.70202637 -0.00204468 C49.37087792 0.05400488 94.12180492 13.33636719 129.8125 44.25 C131.03839844 45.29220703 131.03839844 45.29220703 132.2890625 46.35546875 C149.39198501 61.25944408 162.43845562 79.14124731 172.8125 99.25 C173.19003418 99.97912598 173.56756836 100.70825195 173.95654297 101.45947266 C202.56805292 157.44685922 205.73191419 229.1461159 186.66308594 288.66601562 C177.46461729 316.60992841 164.14590289 341.85202104 143.8125 363.25 C142.59722745 364.66071844 141.38829395 366.07693719 140.1875 367.5 C136.70037702 371.48758971 132.91615338 374.9067899 128.8125 378.25 C127.39130859 379.41015625 127.39130859 379.41015625 125.94140625 380.59375 C83.26568339 414.75834088 27.15895359 425.92105441 -26.375 420.125 C-66.7942639 415.15639701 -105.4099426 399.45651178 -134.70849609 370.69824219 C-136.15107299 369.28566937 -137.61632755 367.8963739 -139.08203125 366.5078125 C-154.79327148 351.34591633 -166.0005033 332.92254496 -175.1875 313.25 C-175.70957031 312.1465625 -176.23164062 311.043125 -176.76953125 309.90625 C-183.32519217 295.37655297 -187.83739009 280.10164833 -191 264.5 C-191.194729 263.54440186 -191.38945801 262.58880371 -191.59008789 261.60424805 C-194.64142816 245.63812015 -195.53788654 229.8713959 -195.50317383 213.64770508 C-195.50002122 210.58313096 -195.52355477 207.51953351 -195.54882812 204.45507812 C-195.60604421 186.64430003 -193.88200509 169.01931369 -189.9375 151.625 C-189.72770508 150.68809326 -189.51791016 149.75118652 -189.30175781 148.78588867 C-181.32501536 114.52215405 -165.46513121 82.80738232 -141.1875 57.25 C-140.6929834 56.72293457 -140.1984668 56.19586914 -139.68896484 55.65283203 C-103.13221455 16.90731955 -52.36435058 0.03555559 0 0 Z M-119.9375 76.125 C-148.94183245 109.97245738 -164.14968772 154.29119926 -164.390625 198.7890625 C-164.39768463 199.66453735 -164.40474426 200.54001221 -164.41201782 201.4420166 C-164.64556212 228.98200825 -164.64556212 228.98200825 -161.1875 256.25 C-160.98882324 257.26078613 -160.79014648 258.27157227 -160.58544922 259.31298828 C-153.60949154 293.46121558 -139.38597166 323.95159781 -115.1875 349.25 C-114.56875 349.9203125 -113.95 350.590625 -113.3125 351.28125 C-90.15608461 375.59548616 -56.89297204 388.69026017 -24.1875 393.25 C-23.54304932 393.3442627 -22.89859863 393.43852539 -22.23461914 393.53564453 C18.6833952 398.88922441 64.60617716 390.46526985 98.25 365.75 C103.66256537 361.48778912 108.81061381 356.985328 113.8125 352.25 C114.69679688 351.43015625 115.58109375 350.6103125 116.4921875 349.765625 C150.23082763 317.46063813 164.8759875 267.73939311 165.98596191 222.14732361 C167.00970241 171.7525941 158.59144992 118.1693011 123.8125 79.25 C122.97203125 78.27804687 122.1315625 77.30609375 121.265625 76.3046875 C94.47922664 45.75045663 55.45149348 29.32529616 15.30419922 26.39501953 C-35.41445466 23.4431402 -84.70798344 38.31617954 -119.9375 76.125 Z " fill="#FFFFFF" transform="translate(1344.1875,430.75)"/>
<path d="M0 0 C15.67491459 13.36654708 23.60468227 31.27859127 28.97265625 50.75 C29.38515625 49.66203125 29.79765625 48.5740625 30.22265625 47.453125 C39.17333709 24.42694636 55.09651237 4.54999532 77.86572266 -6.13867188 C103.90231798 -17.49484994 134.15319321 -17.71515172 160.625 -7.6875 C170.47143813 -3.45939121 178.40887162 2.19903535 185.97265625 9.75 C187.02066406 10.78060547 187.02066406 10.78060547 188.08984375 11.83203125 C199.17908609 23.46063363 205.49814576 38.76500361 209.66015625 54.0625 C209.96409302 55.16307739 209.96409302 55.16307739 210.27416992 56.28588867 C213.93130551 70.43993409 214.25802353 84.4788807 214.19970703 98.99584961 C214.19914164 100.98818455 214.19946197 102.98051991 214.20059204 104.97285461 C214.20116156 110.335469 214.18947274 115.69799235 214.17544413 121.06058574 C214.16286936 126.68195165 214.16176098 132.30332007 214.15939331 137.92469788 C214.15319825 148.54900846 214.13681436 159.17327747 214.11669433 169.79756981 C214.09427361 181.90167187 214.08332643 194.005776 214.07330346 206.10989368 C214.05244623 230.98995288 214.01690204 255.86997234 213.97265625 280.75 C204.73265625 280.75 195.49265625 280.75 185.97265625 280.75 C185.9645694 278.38902161 185.95648254 276.02804321 185.94815063 273.59552002 C185.87083692 251.29202307 185.78282808 228.98858632 185.68512917 206.68516922 C185.63516097 195.22013919 185.58871721 183.75511574 185.55078125 172.29003906 C185.51767933 162.28868744 185.47774989 152.28738945 185.42986619 142.28609729 C185.40478073 136.99814037 185.38294811 131.71021819 185.36931229 126.42221832 C185.35632688 121.42849332 185.33410162 116.43488863 185.30527306 111.44123077 C185.29632419 109.62423009 185.29053744 107.80721011 185.28844261 105.9901886 C185.25127868 78.61133147 183.70431706 48.88197222 163.97265625 27.75 C163.34230469 27.06679688 162.71195313 26.38359375 162.0625 25.6796875 C149.06232961 12.89821156 131.00269227 9.25355087 113.37426758 9.39599609 C95.54581576 9.87586852 77.95036044 16.15635547 64.48828125 28.1484375 C49.46423258 44.02436522 40.82962717 65.26042919 40.82116699 87.09553528 C40.81693458 87.92075029 40.81270217 88.74596529 40.8083415 89.59618682 C40.79535653 92.35294481 40.78930041 95.10967391 40.78320312 97.86645508 C40.77525779 99.84598974 40.7668696 101.82552266 40.7580719 103.80505371 C40.74003759 108.06276253 40.72501426 112.32046759 40.71229553 116.57819557 C40.6920656 123.30416448 40.66441703 130.03009029 40.63562012 136.75602722 C40.57045406 152.24047566 40.51492859 167.72495585 40.45963287 183.20944214 C40.40882905 197.41441627 40.35601058 211.61937463 40.29510736 225.82430953 C40.26669428 232.51768325 40.24312251 239.21105169 40.22318268 245.90445578 C40.20983979 250.05630629 40.192426 254.20813229 40.17387199 258.35996246 C40.16608664 260.29299745 40.16003 262.22604024 40.15577888 264.15908623 C40.14977365 266.78589398 40.13774644 269.41260521 40.12414551 272.03938293 C40.12384952 272.81445798 40.12355353 273.58953303 40.12324858 274.3880952 C40.08675004 279.63590621 40.08675004 279.63590621 38.97265625 280.75 C36.82706798 280.83775605 34.67861204 280.85695219 32.53125 280.84765625 C31.22607422 280.84443359 29.92089844 280.84121094 28.57617188 280.83789062 C27.18749935 280.82953401 25.79882748 280.82106905 24.41015625 280.8125 C23.01757969 280.80748666 21.62500144 280.80292347 20.23242188 280.79882812 C16.81245755 280.78699434 13.39257781 280.7705088 9.97265625 280.75 C9.9702679 279.71430909 9.96787954 278.67861818 9.96541882 277.6115427 C9.90649415 252.35293418 9.83053169 227.09442005 9.73694134 201.83591557 C9.6920709 189.62084379 9.65263621 177.4058006 9.6262207 165.19067383 C9.60316958 154.5378038 9.5696926 143.88502491 9.52395469 133.23222727 C9.50011813 127.59726441 9.48132686 121.96239127 9.47504234 116.32737923 C9.46894796 111.01105632 9.44879283 105.69496269 9.41838074 100.37872505 C9.40966974 98.43952534 9.40586332 96.50029557 9.40764809 94.56107712 C9.42303407 70.10462858 5.82542346 43.29103886 -11.80078125 24.74609375 C-26.03232329 11.98764115 -43.1310808 8.68452735 -61.63623047 9.56347656 C-84.90336503 11.3784746 -104.92530878 25.85446965 -120.02734375 42.75 C-120.83754662 43.64808526 -120.83754662 43.64808526 -121.66411722 44.56431365 C-132.5847538 57.02587695 -134.91004591 66.70741284 -134.5949707 82.98876953 C-134.6011818 85.15890771 -134.61311877 87.32903577 -134.63027954 89.49911499 C-134.66047519 95.33374638 -134.61157189 101.16523747 -134.54739404 106.99949121 C-134.49390067 113.11735351 -134.51462344 119.23497769 -134.52714539 125.35299683 C-134.53969642 136.91269868 -134.48644594 148.47110269 -134.40897387 160.03051364 C-134.32395011 173.20118356 -134.31316273 186.37159632 -134.30830824 199.54250169 C-134.29668355 226.61220707 -134.19018378 253.68081806 -134.02734375 280.75 C-143.59734375 280.75 -153.16734375 280.75 -163.02734375 280.75 C-163.02734375 184.72 -163.02734375 88.69 -163.02734375 -10.25 C-144.02734375 -10.25 -144.02734375 -10.25 -139.02734375 -7.25 C-137.21056515 -1.98993375 -136.67894586 3.13069504 -136.4296875 8.6796875 C-136.39049698 9.39609406 -136.35130646 10.11250061 -136.31092834 10.85061646 C-136.18823085 13.10842914 -136.0757354 15.3665792 -135.96484375 17.625 C-135.84917315 19.90474481 -135.73122155 22.18430145 -135.60804749 24.46365356 C-135.5321384 25.8746049 -135.46071311 27.28580625 -135.39427185 28.69723511 C-135.23467113 32.34641613 -135.23467113 32.34641613 -134.02734375 35.75 C-133.55425781 35.14414062 -133.08117188 34.53828125 -132.59375 33.9140625 C-101.33406562 -5.69372472 -46.43102055 -34.50873269 0 0 Z " fill="#FFFFFF" transform="translate(1778.02734375,567.25)"/>
<path d="M0 0 C0.73798828 -0.00067474 1.47597656 -0.00134949 2.23632812 -0.00204468 C13.45255634 0.01424736 24.21023098 0.50700714 35.125 3.25 C36.14956299 3.49145752 36.14956299 3.49145752 37.19482422 3.73779297 C65.88190121 10.63620996 91.78128806 27.54449309 107.8125 52.60644531 C125.34219702 81.28731091 132.74623672 113.02308484 132.51611328 146.47949219 C132.50000088 149.24984922 132.51610118 152.01874833 132.53515625 154.7890625 C132.57811501 191.01948092 123.55991077 229.43983891 99.125 257.25 C98.46242188 258.05566406 97.79984375 258.86132812 97.1171875 259.69140625 C77.05740805 283.34122003 47.428779 295.22368397 17.125 298.25 C-22.63102905 299.96844778 -59.59876277 294.16089474 -89.9921875 266.44140625 C-97.38823155 259.47196715 -103.33118997 251.7416892 -108.875 243.25 C-109.81279297 241.83847656 -109.81279297 241.83847656 -110.76953125 240.3984375 C-118.78986249 227.54418202 -123.67821443 213.20648526 -127.25 198.5625 C-127.48855713 197.59094971 -127.72711426 196.61939941 -127.97290039 195.6184082 C-131.4768768 180.3551528 -132.25521134 165.16226599 -132.1875 149.5625 C-132.18567719 148.68703522 -132.18385437 147.81157043 -132.18197632 146.90957642 C-132.05290737 110.01813893 -124.09521687 72.23419341 -99.875 43.25 C-99.04355469 42.25484375 -98.21210938 41.2596875 -97.35546875 40.234375 C-72.48468565 11.40844974 -37.18325116 0.03048316 0 0 Z M-70.875 50.25 C-71.49761719 50.87261719 -72.12023438 51.49523437 -72.76171875 52.13671875 C-97.56109466 78.71942057 -103.91788051 119.97196365 -102.96826172 154.90380859 C-101.88665639 182.11382752 -96.95691416 207.19955589 -83.875 231.25 C-83.36582031 232.21550781 -82.85664063 233.18101562 -82.33203125 234.17578125 C-74.6676989 247.47507261 -62.41289856 258.26381871 -48.875 265.25 C-47.50794922 265.96542969 -47.50794922 265.96542969 -46.11328125 266.6953125 C-20.96843452 278.95571952 10.77784151 279.55596747 37.18945312 270.94970703 C60.65672174 262.46620655 78.67244707 245.31071429 89.375 222.9375 C108.12194626 182.27491633 108.48292166 129.60803914 94.17724609 87.45751953 C84.76794272 62.04817258 68.75058584 42.4071781 44.05078125 30.9375 C30.06452151 24.75633217 16.11404872 22.85187449 0.9375 22.9375 C0.25146698 22.93965515 -0.43456604 22.9418103 -1.14138794 22.94403076 C-28.42781359 23.08167423 -51.36288793 30.73788793 -70.875 50.25 Z " fill="#FFFFFF" transform="translate(3067.875,552.75)"/>
<path d="M0 0 C21.76770597 18.52621808 30.16670329 46.01591387 32.97265625 73.56640625 C33.42618199 80.49804962 33.35549143 87.43717262 33.31323242 94.37988281 C33.31238342 96.37295519 33.31286661 98.3660285 33.31455994 100.35910034 C33.31541066 105.70080588 33.29793682 111.04230383 33.27683806 116.38396168 C33.25791499 121.99194563 33.25630864 127.59993583 33.25276184 133.20794678 C33.24348683 143.79670018 33.21893543 154.38535918 33.18871337 164.97407126 C33.15502678 177.04200675 33.13864771 189.10994706 33.12362707 201.17791796 C33.09238116 225.97413457 33.03909656 250.77026109 32.97265625 275.56640625 C23.40265625 275.56640625 13.83265625 275.56640625 3.97265625 275.56640625 C3.96679001 273.11551071 3.96092377 270.66461517 3.95487976 268.13945007 C3.89808169 244.99680462 3.8249354 221.85425146 3.73694134 198.7117033 C3.69209577 186.81505409 3.65265553 174.91843406 3.6262207 163.02172852 C3.60314924 152.64497848 3.56965009 142.26832168 3.52395469 131.89164573 C3.50014521 126.40417205 3.48133639 120.91679001 3.47504234 115.42926598 C3.46893546 110.24918338 3.44873688 105.06933487 3.41838074 99.88933945 C3.40968933 98.00258201 3.40585911 96.11579386 3.40764809 94.22901726 C3.42393303 69.09672012 0.29532194 43.17562888 -17.70703125 24.16015625 C-19.02734375 22.56640625 -19.02734375 22.56640625 -19.02734375 20.56640625 C-19.60484375 20.29441406 -20.18234375 20.02242187 -20.77734375 19.7421875 C-23.02390963 18.56820082 -24.96983038 17.23079558 -27.02734375 15.75390625 C-45.31891722 3.53966338 -69.20897698 1.84564068 -90.46484375 5.69140625 C-115.81799589 11.30810457 -140.80899448 26.15452417 -157.22172451 46.44397831 C-159.02734375 48.56640625 -159.02734375 48.56640625 -160.85701847 50.19242764 C-166.69999756 55.99520126 -166.82432052 61.87056883 -166.95186722 69.65917671 C-166.96215745 72.63987201 -166.93823855 75.6192553 -166.91381836 78.59985352 C-166.92171221 80.74895004 -166.93267668 82.89803714 -166.94647217 85.04710388 C-166.97515167 90.8648361 -166.96098657 96.68176196 -166.93903041 102.49949384 C-166.92338075 108.58541325 -166.94726982 114.67117551 -166.9669342 120.75706482 C-166.99815562 132.27413082 -166.99390605 143.79089866 -166.97685963 155.30798334 C-166.95917931 168.42287658 -166.9811227 181.53761032 -167.00636661 194.65248024 C-167.05739567 221.62385087 -167.05735009 248.59501454 -167.02734375 275.56640625 C-176.59734375 275.56640625 -186.16734375 275.56640625 -196.02734375 275.56640625 C-196.02734375 179.53640625 -196.02734375 83.50640625 -196.02734375 -15.43359375 C-177.02734375 -15.43359375 -177.02734375 -15.43359375 -172.02734375 -12.43359375 C-170.14368361 -7.02027981 -169.66990967 -1.76120925 -169.4296875 3.93359375 C-169.39049698 4.6943924 -169.35130646 5.45519104 -169.31092834 6.23904419 C-169.18811009 8.63953089 -169.0756734 11.0403386 -168.96484375 13.44140625 C-168.84920541 15.86380111 -168.73125379 18.28601622 -168.60804749 20.70803833 C-168.5320925 22.20803168 -168.46067163 23.70826302 -168.39427185 25.20870972 C-168.2574355 29.01397739 -168.2574355 29.01397739 -167.02734375 32.56640625 C-166.49367188 31.96054687 -165.96 31.3546875 -165.41015625 30.73046875 C-162.97151983 27.98805755 -160.50647605 25.27226579 -158.02734375 22.56640625 C-156.90779297 21.344375 -156.90779297 21.344375 -155.765625 20.09765625 C-117.2629268 -20.17002132 -46.2941151 -37.21449511 0 0 Z " fill="#FFFFFF" transform="translate(2279.02734375,572.43359375)"/>
<path d="M0 0 C4.04152915 -0.08746928 8.08281305 -0.14054982 12.125 -0.1875 C13.26710938 -0.21263672 14.40921875 -0.23777344 15.5859375 -0.26367188 C17.24882812 -0.27817383 17.24882812 -0.27817383 18.9453125 -0.29296875 C19.96125488 -0.3086792 20.97719727 -0.32438965 22.02392578 -0.34057617 C25.64605747 0.07393357 27.92913348 1.03991804 31 3 C32.59082031 5.17749023 32.59082031 5.17749023 33.828125 7.87109375 C34.32505859 8.9472998 34.82199219 10.02350586 35.33398438 11.13232422 C35.89367901 12.41966434 36.4486735 13.70905393 37 15 C37.31396729 15.73277161 37.62793457 16.46554321 37.95141602 17.22052002 C40.19546374 22.49549463 42.37674908 27.79525524 44.54226685 33.10287476 C46.63716191 38.23654547 48.74767988 43.36380068 50.85546875 48.4921875 C51.28584946 49.54055283 51.71623016 50.58891815 52.15965271 51.66905212 C56.41468891 62.02783405 60.73095523 72.36052302 65.0625 82.6875 C65.80910177 84.46857897 66.55568374 86.24966623 67.30224609 88.03076172 C68.79265145 91.58581351 70.28359433 95.14063928 71.77490234 98.6953125 C75.47880067 107.52442203 79.17734433 116.35577452 82.875 125.1875 C83.24278564 126.0659256 83.61057129 126.9443512 83.98950195 127.84939575 C90.86971681 144.28419158 97.73972294 160.723293 104.578125 177.17553711 C105.41011998 179.17693565 106.24215108 181.17831918 107.07421875 183.1796875 C107.48336517 184.16387161 107.8925116 185.14805573 108.3140564 186.1620636 C110.74048936 191.99255194 113.18386567 197.8155528 115.64335632 203.63217163 C117.19435777 207.30280139 118.73773807 210.97661087 120.28024292 214.65081787 C120.99215805 216.34105318 121.7075681 218.02982217 122.42703247 219.71685791 C127.49208845 231.59769603 131.50519194 243.56639116 135 256 C135.18207001 255.39987595 135.36414001 254.79975189 135.55172729 254.18144226 C141.49767237 234.67234778 149.59830837 216.22455832 157.73075867 197.54792786 C160.88489738 190.29499116 163.9387211 183.00621693 166.9375 175.6875 C171.92292914 163.55032273 177.01313521 151.45935929 182.125 139.375 C188.44654536 124.4290438 194.74202199 109.47268443 201 94.5 C209.24943818 74.76923936 217.53100014 55.05217265 225.88026428 35.36341858 C227.50469024 31.5327123 229.12745219 27.70139795 230.73779297 23.86474609 C232.12918496 20.55197105 233.53119073 17.24396202 234.9375 13.9375 C235.30810547 13.04643555 235.67871094 12.15537109 236.06054688 11.23730469 C237.83361183 7.10744277 239.35946216 3.83152943 243 1 C246.1184325 -0.0394775 248.27475586 -0.11494838 251.54296875 -0.09765625 C252.61611328 -0.09443359 253.68925781 -0.09121094 254.79492188 -0.08789062 C255.91447266 -0.07951172 257.03402344 -0.07113281 258.1875 -0.0625 C259.88422852 -0.05573242 259.88422852 -0.05573242 261.61523438 -0.04882812 C264.41020927 -0.03703498 267.2050782 -0.0205765 270 0 C268.07082924 6.08514714 265.84842447 11.95138974 263.296875 17.80078125 C262.94264969 18.62171265 262.58842438 19.44264404 262.22346497 20.28845215 C261.46395708 22.04822233 260.70291449 23.80733081 259.94046021 25.56582642 C257.89287965 30.29007961 255.85852224 35.02001762 253.82421875 39.75 C253.41239853 40.7071138 253.00057831 41.6642276 252.57627869 42.65034485 C248.84078652 51.34463932 245.1864894 60.07125273 241.5625 68.8125 C236.00505262 82.20742136 230.3958385 95.5795824 224.75 108.9375 C224.35112579 109.88130524 223.95225159 110.82511047 223.54129028 111.79751587 C221.50784962 116.60855104 219.47379564 121.41932659 217.43945312 126.22998047 C213.85062718 134.71736404 210.2672183 143.20703454 206.68347168 151.69656372 C204.70587645 156.38113903 202.72791968 161.06556168 200.75 165.75 C199.95833161 167.62499927 199.16666494 169.49999927 198.375 171.375 C196.79166667 175.125 195.20833333 178.875 193.625 182.625 C193.23317032 183.55301926 192.84134064 184.48103851 192.43763733 185.43717957 C191.6455175 187.31324962 190.85339307 189.18931774 190.06126404 191.06538391 C188.08899303 195.73649611 186.11680064 200.40764147 184.14477539 205.07885742 C180.50017132 213.71175297 176.85483968 222.34433889 173.20680237 230.9757843 C164.75852391 250.96497753 156.31758276 270.95598909 148 291 C139.42 291 130.84 291 122 291 C112.64176021 269.24478163 103.37822602 247.45212786 94.20422363 225.61862183 C89.98231456 215.57366597 85.74030245 205.53720129 81.5 195.5 C75.658268 181.67019309 69.82321149 167.83761537 64 154 C58.23813047 140.30870997 52.46624786 126.62167477 46.6875 112.9375 C46.29130463 111.99929413 45.89510925 111.06108826 45.48690796 110.0944519 C42.65821214 103.39618575 39.82914698 96.69807561 37 90 C35.37757425 86.1588668 33.75518048 82.3177201 32.1328125 78.4765625 C31.73271973 77.52933823 31.33262695 76.58211395 30.92041016 75.60618591 C28.93011368 70.89383231 26.94046205 66.1812082 24.95214844 61.46801758 C24.17384262 59.62320352 23.39552239 57.77839554 22.6171875 55.93359375 C22.23554443 55.02899918 21.85390137 54.1244046 21.46069336 53.19239807 C19.13852641 47.69055743 16.80973349 42.19157446 14.47572327 36.69474792 C12.98050786 33.17209301 11.48835694 29.64814472 9.99667358 26.12399292 C9.29943383 24.47893942 8.60076104 22.83449244 7.90054321 21.19070435 C6.93910183 18.93337537 5.98268704 16.67397766 5.02734375 14.4140625 C4.74807037 13.76200333 4.468797 13.10994415 4.18106079 12.43812561 C2.45679901 8.3414907 1.14394425 4.28436574 0 0 Z " fill="#FFFFFF" transform="translate(2496,557)"/>
<path d="M0 0 C9.57 0 19.14 0 29 0 C29 96.03 29 192.06 29 291 C19.43 291 9.86 291 0 291 C0 194.97 0 98.94 0 0 Z " fill="#FFFFFF" transform="translate(2827,557)"/>
<path d="M0 0 C9.57 0 19.14 0 29 0 C29 96.03 29 192.06 29 291 C19.43 291 9.86 291 0 291 C0 194.97 0 98.94 0 0 Z " fill="#FFFFFF" transform="translate(2406,557)"/>
<path d="M0 0 C5.80329722 4.1842614 10.23273107 9.9657291 11.66015625 17.05859375 C12.77755948 25.5155719 11.27138816 31.7406933 6.53125 38.8046875 C2.06637992 44.38299152 -3.84096365 47.45250014 -10.84375 48.5546875 C-18.60063997 49.0718135 -25.34575535 47.80881564 -31.59375 42.9296875 C-37.38530843 37.54219128 -40.48469472 30.71972877 -41.15625 22.9296875 C-41.00758726 14.93163197 -37.25833526 7.94169621 -31.80859375 2.25 C-22.78223138 -5.53815361 -10.17334089 -5.84636798 0 0 Z " fill="#FFFFFF" transform="translate(2855.84375,435.4453125)"/>
<path d="M0 0 C7.15888645 4.14400582 11.9932779 9.76253168 14.1875 17.78515625 C15.8401816 26.15185687 13.89122755 32.92671757 9.3046875 40.05078125 C5.00382041 45.53849964 -0.57261973 48.60800713 -7.375 50 C-15.7887851 50.82240005 -22.97399546 48.78769614 -29.703125 43.6328125 C-35.05895068 38.40212294 -38.2340108 31.99331182 -38.5390625 24.5078125 C-38.01473407 16.49307787 -35.04960677 9.69993983 -29.375 4 C-20.71686376 -2.59199009 -10.21960777 -4.67810003 0 0 Z " fill="#FFFFFF" transform="translate(2432.375,434)"/>
</svg>
