<svg width="159" height="159" viewBox="0 0 159 159" fill="none" xmlns="http://www.w3.org/2000/svg">
<g filter="url(#filter0_d_99_1195)">
<path d="M39.0245 29C39.0245 20.1634 46.1879 13 55.0245 13H103.024C111.861 13 119.024 20.1634 119.024 29V77C119.024 85.8366 111.861 93 103.024 93H55.0245C46.1879 93 39.0245 85.8366 39.0245 77V29Z" fill="url(#paint0_linear_99_1195)" shape-rendering="crispEdges"/>
<path d="M85.6911 68V64.6667C85.6911 62.8986 84.9887 61.2029 83.7385 59.9526C82.4883 58.7024 80.7926 58 79.0245 58H69.0245C67.2563 58 65.5607 58.7024 64.3104 59.9526C63.0602 61.2029 62.3578 62.8986 62.3578 64.6667V68" stroke="white" stroke-width="3.33333" stroke-linecap="round" stroke-linejoin="round"/>
<path d="M85.6912 38.2131C87.1208 38.5838 88.3868 39.4186 89.2906 40.5866C90.1944 41.7546 90.6848 43.1896 90.6848 44.6665C90.6848 46.1433 90.1944 47.5784 89.2906 48.7464C88.3868 49.9144 87.1208 50.7492 85.6912 51.1198" stroke="white" stroke-width="3.33333" stroke-linecap="round" stroke-linejoin="round"/>
<path d="M95.6912 67.9999V64.6666C95.6901 63.1894 95.1984 61.7545 94.2934 60.5871C93.3885 59.4196 92.1214 58.5858 90.6912 58.2166" stroke="white" stroke-width="3.33333" stroke-linecap="round" stroke-linejoin="round"/>
<path d="M74.0245 51.3333C77.7064 51.3333 80.6911 48.3486 80.6911 44.6667C80.6911 40.9848 77.7064 38 74.0245 38C70.3426 38 67.3578 40.9848 67.3578 44.6667C67.3578 48.3486 70.3426 51.3333 74.0245 51.3333Z" stroke="white" stroke-width="3.33333" stroke-linecap="round" stroke-linejoin="round"/>
</g>
<defs>
<filter id="filter0_d_99_1195" x="-2.67029e-05" y="-1.90735e-06" width="158.049" height="158.049" filterUnits="userSpaceOnUse" color-interpolation-filters="sRGB">
<feFlood flood-opacity="0" result="BackgroundImageFix"/>
<feColorMatrix in="SourceAlpha" type="matrix" values="0 0 0 0 0 0 0 0 0 0 0 0 0 0 0 0 0 0 127 0" result="hardAlpha"/>
<feMorphology radius="12" operator="erode" in="SourceAlpha" result="effect1_dropShadow_99_1195"/>
<feOffset dy="26.0245"/>
<feGaussianBlur stdDeviation="25.5123"/>
<feComposite in2="hardAlpha" operator="out"/>
<feColorMatrix type="matrix" values="0 0 0 0 0.0235294 0 0 0 0 0.713726 0 0 0 0 0.831373 0 0 0 0.62 0"/>
<feBlend mode="normal" in2="BackgroundImageFix" result="effect1_dropShadow_99_1195"/>
<feBlend mode="normal" in="SourceGraphic" in2="effect1_dropShadow_99_1195" result="shape"/>
</filter>
<linearGradient id="paint0_linear_99_1195" x1="39.0245" y1="13" x2="119.024" y2="93" gradientUnits="userSpaceOnUse">
<stop stop-color="#00D3F3"/>
<stop offset="1" stop-color="#2B7FFF"/>
</linearGradient>
</defs>
</svg>
