<?xml version="1.0" encoding="UTF-8"?>
<svg version="1.1" xmlns="http://www.w3.org/2000/svg" width="1496" height="434">
<path d="M0 0 C1.13318832 -0.00226556 2.26637663 -0.00453111 3.43390399 -0.00686532 C7.20967476 -0.01316689 10.98540927 -0.01237843 14.76118469 -0.0115509 C17.47720474 -0.0140031 20.19322229 -0.01791989 22.90924072 -0.02172852 C29.50896892 -0.03000868 36.10868818 -0.03278217 42.70842113 -0.03334089 C48.07752509 -0.03381733 53.44662611 -0.03587843 58.81572914 -0.03904152 C74.0644971 -0.04784109 89.31325804 -0.05246201 104.56202855 -0.05171105 C105.38281844 -0.05167109 106.20360832 -0.05163113 107.04927063 -0.05158997 C107.87107186 -0.05154909 108.6928731 -0.0515082 109.5395774 -0.05146609 C122.84986484 -0.05105987 136.16012396 -0.06062513 149.47040322 -0.07472833 C163.1631545 -0.08912139 176.855892 -0.0959969 190.54865104 -0.09513456 C198.22567016 -0.09480359 205.90265959 -0.09750663 213.57967186 -0.10831261 C220.11721104 -0.11745628 226.65470708 -0.11956132 233.19224992 -0.11280318 C236.52173971 -0.10955729 239.85107998 -0.11051601 243.18057251 -0.11815643 C272.56801016 -0.18119712 298.53865531 2.48164714 320.4420929 24.14152527 C338.50528664 42.58481212 344.51580584 64.44372014 344.47814941 89.78927612 C344.48041497 90.92246444 344.48268053 92.05565276 344.48501474 93.22318012 C344.49131631 96.99895088 344.49052785 100.77468539 344.48970032 104.55046082 C344.49215252 107.26648086 344.4960693 109.98249841 344.49987793 112.69851685 C344.5081581 119.29824504 344.51093158 125.8979643 344.51149031 132.49769726 C344.51196674 137.86680121 344.51402785 143.23590224 344.51719093 148.60500526 C344.52599051 163.85377322 344.53061143 179.10253416 344.52986046 194.35130467 C344.52980052 195.5824895 344.52980052 195.5824895 344.52973938 196.83854675 C344.5296985 197.66034799 344.52965762 198.48214922 344.5296155 199.32885353 C344.52920928 212.63914097 344.53877454 225.94940009 344.55287775 239.25967934 C344.56727081 252.95243063 344.57414631 266.64516813 344.57328397 280.33792716 C344.572953 288.01494628 344.57565605 295.69193571 344.58646202 303.36894798 C344.5956057 309.90648717 344.59771074 316.4439832 344.5909526 322.98152604 C344.58770671 326.31101583 344.58866542 329.6403561 344.59630585 332.96984863 C344.65934654 362.35728629 341.99650227 388.32793143 320.33662415 410.23136902 C301.89333729 428.29456277 280.03442928 434.30508197 254.68887329 434.26742554 C253.55568497 434.26969109 252.42249666 434.27195665 251.2549693 434.27429086 C247.47919853 434.28059243 243.70346402 434.27980397 239.9276886 434.27897644 C237.21166855 434.28142864 234.49565101 434.28534542 231.77963257 434.28915405 C225.17990437 434.29743422 218.58018511 434.3002077 211.98045216 434.30076643 C206.6113482 434.30124287 201.24224718 434.30330397 195.87314415 434.30646706 C180.62437619 434.31526663 165.37561525 434.31988755 150.12684474 434.31913658 C149.30605485 434.31909663 148.48526497 434.31905667 147.63960266 434.3190155 C146.81780143 434.31897462 145.99600019 434.31893374 145.14929589 434.31889162 C131.83900845 434.3184854 118.52874933 434.32805066 105.21847007 434.34215387 C91.52571879 434.35654693 77.83298129 434.36342244 64.14022225 434.36256009 C56.46320313 434.36222912 48.7862137 434.36493217 41.10920143 434.37573814 C34.57166225 434.38488182 28.03416621 434.38698686 21.49662337 434.38022872 C18.16713358 434.37698283 14.83779331 434.37794155 11.50830078 434.38558197 C-19.3983036 434.45188151 -43.90795448 430.94394917 -67.34306335 408.75871277 C-84.80172035 390.56409366 -89.82592714 367.84013549 -89.78927612 343.44055176 C-89.79154168 342.31538169 -89.79380724 341.19021161 -89.79614145 340.03094548 C-89.80243446 336.28825374 -89.80165512 332.54559864 -89.80082703 328.80290222 C-89.80382146 326.10806139 -89.80719674 323.41322335 -89.81100464 320.71838379 C-89.81927953 314.17393674 -89.82205804 307.62949871 -89.82261702 301.08504687 C-89.82309369 295.7603118 -89.82515597 290.43557969 -89.82831764 285.11084557 C-89.83711566 269.98372647 -89.84173837 254.85661444 -89.84098717 239.72949276 C-89.84094721 238.91550499 -89.84090726 238.10151722 -89.84086609 237.26286316 C-89.84082521 236.44787097 -89.84078433 235.63287877 -89.84074221 234.79318985 C-89.840336 221.59357239 -89.84990142 208.3939835 -89.86400446 195.1943743 C-89.87840173 181.61119771 -89.8852728 168.02803503 -89.88441068 154.44485062 C-89.88407986 146.83097163 -89.88677617 139.21712258 -89.89758873 131.6032505 C-89.90673797 125.11956281 -89.90883294 118.63591864 -89.90207931 112.15222726 C-89.89883624 108.85097441 -89.89978451 105.54982128 -89.90743256 102.2485733 C-89.97496962 71.06092766 -86.68201864 46.10972187 -64.28056335 22.44621277 C-46.38331264 5.27289579 -24.02668428 -0.03569695 0 0 Z " fill="#6CC7BE" transform="translate(89.65556335449219,-0.1337127685546875)"/>
<path d="M0 0 C0 12.87 0 25.74 0 39 C-2.97 39.66 -5.94 40.32 -9 41 C-23.4291001 44.56503527 -35.27099766 51.07638256 -43.17895508 63.92480469 C-50.73087888 76.79423308 -53.05287232 89.86805543 -50.34375 104.55859375 C-46.27157534 119.17980706 -38.31340723 130.60132603 -25.25 138.3125 C-13.78405151 144.70400703 -0.87172093 147.11677174 12.125 144.3125 C13.42790008 143.90968441 14.71900329 143.46782098 16 143 C16.91136719 142.68160156 17.82273438 142.36320313 18.76171875 142.03515625 C33.36455737 136.4819641 42.88509989 127.66563673 49.8125 113.6875 C52.64383285 106.76582162 52.64383285 106.76582162 55 94 C67.54 94 80.08 94 93 94 C93 135.73273715 62.64429293 172.46922508 34.60192871 200.67355347 C33.45750204 201.81661743 32.31130081 202.95790748 31.16333008 204.09741211 C29.42745269 205.82248477 27.7026491 207.55811991 25.97851562 209.29492188 C20.04454604 215.23521642 14.04250689 220.82853223 7.42211914 226.0065918 C4.91417791 227.98063525 4.91417791 227.98063525 2.6628418 230.5144043 C-0.45606996 233.42571268 -3.7245827 235.05742802 -7.578125 236.7578125 C-8.3250914 237.09854294 -9.0720578 237.43927338 -9.84165955 237.79032898 C-12.30659831 238.91213676 -14.77822918 240.01833807 -17.25 241.125 C-18.99185525 241.91501976 -20.73313797 242.70630295 -22.47387695 243.4987793 C-26.12541216 245.16040389 -29.77908427 246.81719843 -33.43408203 248.47119141 C-41.50676795 252.13113129 -49.54406984 255.86723881 -57.58221436 259.6022644 C-61.0538323 261.21493809 -64.52687711 262.82452652 -67.99987793 264.43421936 C-75.61119595 267.9622278 -83.22019274 271.49521476 -90.828125 275.03051758 C-103.59261089 280.96188228 -116.3695707 286.86576978 -129.1506958 292.76116943 C-142.43945481 298.89108717 -155.72203612 305.0342342 -169 311.1875 C-169.8500058 311.58132874 -170.7000116 311.97515747 -171.57577515 312.38092041 C-182.05801591 317.23794399 -192.53393637 322.10821036 -203 327 C-212.22757327 309.70948604 -216.19021778 293.99738702 -216.11352539 274.29614258 C-216.11367142 273.28991852 -216.11381744 272.28369446 -216.1139679 271.24697876 C-216.11327825 267.96280668 -216.10553081 264.67869327 -216.09765625 261.39453125 C-216.0957887 259.10096772 -216.09436639 256.80740379 -216.09336853 254.51383972 C-216.08956993 248.50848265 -216.07976261 242.50315016 -216.06866455 236.49780273 C-216.05839303 230.3572625 -216.05385866 224.21671825 -216.04882812 218.07617188 C-216.03813771 206.05077051 -216.02109356 194.02538731 -216 182 C-206.38559146 181.90706994 -196.87854228 182.13401502 -187.28125 182.76953125 C-185.28628879 182.89367934 -183.29132559 183.01779805 -181.29630089 183.14092159 C-179.16819028 183.2724558 -177.04017888 183.40552067 -174.91217041 183.53869629 C-144.33197559 185.44339809 -113.74712834 186.73907464 -83.125 187.75 C-82.14359039 187.78244938 -81.16218079 187.81489876 -80.15103149 187.84833145 C-68.10110711 188.24576005 -56.05079324 188.62987768 -44 189 C-44.92851021 187.86546387 -44.92851021 187.86546387 -45.8757782 186.70800781 C-47.0929528 185.22059082 -47.0929528 185.22059082 -48.3347168 183.703125 C-49.1393486 182.71989258 -49.94398041 181.73666016 -50.772995 180.72363281 C-76.24444734 149.5719815 -92.16493435 118.92647166 -90 78 C-89.35202459 72.41221204 -87.91361401 67.29391243 -86 62 C-85.649375 60.96746094 -85.29875 59.93492187 -84.9375 58.87109375 C-80.24582887 46.37626126 -72.38176871 35.3977241 -63 26 C-61.86304688 24.84564453 -61.86304688 24.84564453 -60.703125 23.66796875 C-44.30594161 7.94060494 -22.4428839 0 0 0 Z " fill="#59BEB4" transform="translate(216,70)"/>
<path d="M0 0 C0.84731689 0.4019458 1.69463379 0.8038916 2.56762695 1.21801758 C5.44931118 2.59279181 8.28624778 4.03876436 11.125 5.5 C13.2686981 6.58758125 15.41325031 7.67348043 17.55859375 8.7578125 C18.63737793 9.3034082 19.71616211 9.84900391 20.82763672 10.41113281 C25.58521984 12.79395188 30.38173045 15.09128406 35.1875 17.375 C43.93071666 21.53371025 52.65832948 25.72347574 61.375 29.9375 C74.57208776 36.31515716 87.78329135 42.66310567 101 49 C115.39960195 55.90404535 129.79098906 62.82469993 144.16918945 69.77319336 C151.1803647 73.16069144 158.19775654 76.5349269 165.22094727 79.89746094 C174.8588096 84.51193044 184.47309943 89.15985731 194 94 C181.20067881 112.22933624 162.8424894 123.78557777 141 128 C133.77774229 128.95939856 126.62155558 129.14452454 119.34443665 129.13371277 C118.21124833 129.13597833 117.07806001 129.13824388 115.91053265 129.14057809 C112.13476189 129.14687966 108.35902738 129.1460912 104.58325195 129.14526367 C101.86723191 129.14771587 99.15121436 129.15163265 96.43519592 129.15544128 C89.83546773 129.16372145 83.23574847 129.16649493 76.63601551 129.16705366 C71.26691156 129.1675301 65.89781053 129.1695912 60.5287075 129.17275429 C45.27993955 129.18155386 30.03117861 129.18617478 14.7824081 129.18542381 C13.96161821 129.18538386 13.14082832 129.1853439 12.29516602 129.18530273 C11.47336478 129.18526185 10.65156355 129.18522097 9.80485924 129.18517885 C-3.5054282 129.18477264 -16.81568732 129.19433789 -30.12596657 129.2084411 C-43.81871786 129.22283416 -57.51145536 129.22970967 -71.20421439 129.22884732 C-78.88123351 129.22851635 -86.55822294 129.2312194 -94.23523521 129.24202538 C-100.7727744 129.25116905 -107.31027043 129.25327409 -113.84781327 129.24651595 C-117.17730307 129.24327006 -120.50664334 129.24422878 -123.83613586 129.2518692 C-154.7323886 129.31814654 -179.53466791 125.86248048 -202.8125 103.4375 C-205.957672 100.17279652 -208.62080173 96.86619719 -211 93 C-210 90 -210 90 -207.2890625 88.42871094 C-206.07274604 87.85316321 -204.85088137 87.28925859 -203.625 86.734375 C-202.9620694 86.42454178 -202.29913879 86.11470856 -201.61611938 85.79548645 C-199.41529397 84.77019179 -197.20783258 83.76010656 -195 82.75 C-193.45063776 82.03196937 -191.9016519 81.31312611 -190.35302734 80.59350586 C-178.78288406 75.22942672 -167.16441371 69.96958614 -155.54296875 64.71777344 C-145.30985589 60.08677504 -135.14638798 55.31767225 -125 50.5 C-112.82977065 44.72137452 -100.61427738 39.06072602 -88.33551025 33.51663208 C-78.51950502 29.08248328 -68.75223693 24.55585237 -59.0161438 19.94891357 C-56.89379486 18.94637814 -54.76946251 17.94818859 -52.64428711 16.95166016 C-51.24071652 16.29330736 -49.83715205 15.6349415 -48.43359375 14.9765625 C-47.3948838 14.48949326 -47.3948838 14.48949326 -46.33518982 13.99258423 C-42.02614782 11.96715206 -37.73568194 9.90671424 -33.45422363 7.82365417 C-30.63138404 6.45689478 -27.79747313 5.11431722 -24.96075439 3.77664185 C-23.6289349 3.14198962 -22.30201373 2.49693719 -20.98065186 1.84078979 C-13.0131137 -2.10965624 -8.03591062 -4.4228241 0 0 Z " fill="#000000" transform="translate(225,305)"/>
<path d="M0 0 C0.04652765 13.30084017 0.08197243 26.60166069 0.10362434 39.90256596 C0.11402093 46.08001156 0.12810409 52.2574011 0.15087891 58.43481445 C0.17275525 64.40651939 0.18459958 70.3781707 0.18975449 76.34991264 C0.19342386 78.61784139 0.20058849 80.88576751 0.21146011 83.15367317 C0.31467134 105.59548117 -0.54644012 126.9549102 -14 146 C-14.66 146.33 -15.32 146.66 -16 147 C-17.7512207 146.3894043 -17.7512207 146.3894043 -19.92578125 145.32421875 C-20.76625 144.91751953 -21.60671875 144.51082031 -22.47265625 144.09179688 C-23.40980469 143.62837891 -24.34695313 143.16496094 -25.3125 142.6875 C-26.30507813 142.20474609 -27.29765625 141.72199219 -28.3203125 141.22460938 C-31.22010271 139.8129151 -34.11628062 138.39403888 -37.01177979 136.97357178 C-40.65409327 135.19004016 -44.30189291 133.41778386 -47.94921875 131.64453125 C-49.5265334 130.87752988 -51.10384456 130.11052134 -52.68115234 129.34350586 C-53.47350281 128.95822723 -54.26585327 128.57294861 -55.08221436 128.17599487 C-57.51034488 126.99496832 -59.93809123 125.8131556 -62.36572266 124.63110352 C-80.00314104 116.0439414 -97.66627981 107.53466194 -115.5222168 99.40869141 C-122.01660378 96.4374715 -128.42103982 93.31881388 -134.79968262 90.10932922 C-142.30974466 86.33199582 -149.87190038 82.66448684 -157.4375 79 C-158.94436853 78.26943572 -160.45120378 77.53880277 -161.95800781 76.80810547 C-164.28660356 75.67896369 -166.61525783 74.54994363 -168.94412231 73.4213562 C-173.64799077 71.14164376 -178.34997156 68.85809805 -183.05018616 66.57086182 C-186.06307099 65.10479565 -189.07656012 63.63997422 -192.09011841 62.17529297 C-193.51622084 61.48181729 -194.94206843 60.78781723 -196.36764526 60.09326172 C-198.35374187 59.125769 -200.34082079 58.16032172 -202.328125 57.1953125 C-203.4512207 56.64891113 -204.57431641 56.10250977 -205.73144531 55.53955078 C-209.12457696 53.94132191 -212.54449609 52.45739736 -216 51 C-214.62790233 46.70277102 -212.77862344 44.54389688 -209.375 41.625 C-208.55773437 40.91601562 -207.74046875 40.20703125 -206.8984375 39.4765625 C-205.38059437 38.17964533 -203.85837129 36.88684615 -202.29859924 35.64067078 C-198.1594237 32.2247892 -194.87289371 28.66148321 -191.63110352 24.37963867 C-184.03102318 14.82921191 -176.60426899 6.67595131 -164.01123047 4.91259766 C-154.31783146 3.855817 -144.53862848 4.0696123 -134.80591965 4.26904678 C-129.95014717 4.34260608 -125.09625377 4.28400788 -120.24047852 4.23120117 C-114.30131977 4.17215025 -108.36294009 4.11969361 -102.42344666 4.11958313 C-84.1222545 4.10971155 -65.93217018 3.16087817 -47.67573929 1.95895004 C-42.65291052 1.63030176 -37.62902349 1.31856819 -32.6048584 1.0111084 C-30.11118333 0.85748069 -27.61780684 0.69886387 -25.12487793 0.53356934 C-16.73459218 0.00436519 -8.40350019 -0.08118992 0 0 Z " fill="#59BEB4" transform="translate(434,252)"/>
<path d="M0 0 C0 12.87 0 25.74 0 39 C-2.97 39.66 -5.94 40.32 -9 41 C-23.4291001 44.56503527 -35.27099766 51.07638256 -43.17895508 63.92480469 C-50.73087888 76.79423308 -53.05287232 89.86805543 -50.34375 104.55859375 C-46.27157534 119.17980706 -38.31340723 130.60132603 -25.25 138.3125 C-13.78405151 144.70400703 -0.87172093 147.11677174 12.125 144.3125 C13.42790008 143.90968441 14.71900329 143.46782098 16 143 C16.91136719 142.68160156 17.82273437 142.36320313 18.76171875 142.03515625 C33.36455737 136.4819641 42.88509989 127.66563673 49.8125 113.6875 C52.64383285 106.76582162 52.64383285 106.76582162 55 94 C67.54 94 80.08 94 93 94 C93 135.73273715 62.64429293 172.46922508 34.60192871 200.67355347 C33.45750204 201.81661743 32.31130081 202.95790748 31.16333008 204.09741211 C29.42745269 205.82248477 27.7026491 207.55811991 25.97851562 209.29492188 C17.97929837 217.30493909 9.87808976 225.32122753 0 231 C-7.59922073 224.62716648 -14.96866466 218.21210837 -21.89453125 211.10546875 C-23.60150282 209.39849718 -25.2977316 207.86796664 -27.1875 206.375 C-30.21929114 203.81482081 -32.65719221 201.04190434 -35.22265625 198.02734375 C-36.86880511 196.14964868 -38.57735116 194.41872302 -40.375 192.6875 C-44.99376809 188.13045264 -48.97090895 183.07612458 -53 178 C-53.78375 177.03320312 -54.5675 176.06640625 -55.375 175.0703125 C-78.82229992 145.5357328 -92.01276701 116.04986142 -90 78 C-89.35202459 72.41221204 -87.91361401 67.29391243 -86 62 C-85.649375 60.96746094 -85.29875 59.93492187 -84.9375 58.87109375 C-80.24582887 46.37626126 -72.38176871 35.3977241 -63 26 C-62.24203125 25.23042969 -61.4840625 24.46085937 -60.703125 23.66796875 C-44.30594161 7.94060494 -22.4428839 0 0 0 Z " fill="#FEFEFE" transform="translate(216,70)"/>
<path d="M0 0 C6.6 0 13.2 0 20 0 C20 10.56 20 21.12 20 32 C33.2 32 46.4 32 60 32 C60 39.59 60 47.18 60 55 C46.8 55 33.6 55 20 55 C20.09088262 69.02359079 20.09088262 69.02359079 20.20898438 83.046875 C20.26322013 88.77015681 20.31433362 94.49334253 20.34643555 100.21679688 C20.37253067 104.83351372 20.41297677 109.44990617 20.46318626 114.06642151 C20.47981307 115.82373506 20.49135334 117.58110466 20.49761391 119.33848572 C20.50730081 121.80868168 20.53541355 124.27805557 20.56762695 126.74804688 C20.56619186 127.46734375 20.56475677 128.18664062 20.5632782 128.92773438 C20.68146476 135.37644865 22.25013859 140.76406597 26.25 145.875 C31.84390492 150.19756289 38.17677238 150.68730322 45 150 C48.6785129 149.30601665 52.31715051 148.51361164 55.9609375 147.65625 C59 147 59 147 62 147 C62 154.92 62 162.84 62 171 C44.80612208 176.73129264 25.40052785 179.49272354 8.296875 171.78125 C-1.00503943 166.76824222 -5.87487661 159.61448774 -9.2734375 149.7734375 C-10.87534121 143.65864378 -11.14283117 137.67611725 -11.11352539 131.40258789 C-11.11367142 130.57251221 -11.11381744 129.74243652 -11.1139679 128.88720703 C-11.11327574 126.16566277 -11.1055162 123.44418844 -11.09765625 120.72265625 C-11.09578959 118.82694028 -11.09436686 116.93122383 -11.09336853 115.0355072 C-11.08956287 110.06251681 -11.07974935 105.08955593 -11.06866455 100.11657715 C-11.05840838 95.03540445 -11.05386192 89.95422695 -11.04882812 84.87304688 C-11.03812523 74.91534957 -11.02054434 64.95768187 -11 55 C-17.27 55 -23.54 55 -30 55 C-30.495 52.03 -30.495 52.03 -31 49 C-32.98 53.62 -34.96 58.24 -37 63 C-38.39992188 62.51789063 -39.79984375 62.03578125 -41.2421875 61.5390625 C-43.11968058 60.90071485 -44.99729108 60.26271246 -46.875 59.625 C-48.25171875 59.14933594 -48.25171875 59.14933594 -49.65625 58.6640625 C-63.10075084 54.1194425 -78.26672029 51.05737923 -92.07421875 56.0234375 C-95.02276505 57.51864354 -96.44852861 59.09942305 -98 62 C-99.18572709 65.7152782 -99.20169698 67.4397306 -97.875 71.125 C-94.36956508 76.50000021 -89.39249659 79.01332794 -83.6875 81.625 C-82.96546387 81.96200928 -82.24342773 82.29901855 -81.49951172 82.64624023 C-75.99071885 85.18102084 -70.40213208 87.49213726 -64.78564453 89.77636719 C-46.61137856 97.1718587 -46.61137856 97.1718587 -39 103 C-37.72769531 103.95132813 -37.72769531 103.95132813 -36.4296875 104.921875 C-34.06684939 106.94282335 -32.50739735 108.78494238 -30.8125 111.375 C-30.32394531 112.10460937 -29.83539062 112.83421875 -29.33203125 113.5859375 C-24.07241304 123.11803149 -24.70030405 136.01899842 -26.65234375 146.50390625 C-30.3259733 157.5878615 -37.73674191 164.78691653 -48 170 C-59.75821533 174.97702236 -71.95025813 176.37841477 -84.625 176.3125 C-85.75583008 176.30758545 -86.88666016 176.3026709 -88.05175781 176.29760742 C-103.05464883 176.09000284 -116.07710699 173.48028767 -130 168 C-130 159.09 -130 150.18 -130 141 C-126.52232732 141.69553454 -123.59581588 142.40233366 -120.3046875 143.55859375 C-102.88971262 149.58814985 -81.97957697 156.15457007 -64.0078125 148.2109375 C-60.07596707 145.83959104 -58.42173706 143.26521119 -57 139 C-56.62488752 135.02380772 -56.7300842 132.57503801 -58.4375 128.9375 C-64.04028661 122.5147934 -71.72130594 118.94688693 -79.4375 115.625 C-80.29714355 115.2448877 -81.15678711 114.86477539 -82.04248047 114.47314453 C-86.33108987 112.57993213 -90.635987 110.72692571 -94.94921875 108.890625 C-108.53589351 103.06276708 -120.94748771 96.69319904 -128 83 C-131.63225989 73.14100888 -131.49391056 61.17011121 -127.3828125 51.49609375 C-121.43225848 40.75483946 -112.27938873 35.08563563 -100.75 31.6875 C-76.98361592 25.31574318 -49.1269561 27.93652195 -27 39 C-20.43160067 37.49474182 -14.59935503 35.05811967 -10 30 C-5.07671972 20.65374532 -2.59195981 10.18315414 0 0 Z " fill="#FFFFFF" transform="translate(1434,131)"/>
<path d="M0 0 C89.28791774 0 89.28791774 0 107 13 C107.64195312 13.44988281 108.28390625 13.89976562 108.9453125 14.36328125 C117.9462816 21.27961032 122.36777168 32.5371019 124.46484375 43.41015625 C124.74862543 45.61432358 124.90929951 47.77980976 125 50 C125.05994141 51.16595703 125.05994141 51.16595703 125.12109375 52.35546875 C125.50292913 66.4833778 122.02662655 78.45966787 112.75 89.3125 C106.16125203 96.2113067 98.61136002 101.01325925 90 105 C94.04424261 112.19125258 98.34281896 119.10948994 102.95678711 125.94213867 C106.37971005 131.02767891 109.67704823 136.18400376 112.9375 141.375 C116.77553141 147.48285472 120.63833057 153.57207414 124.5625 159.625 C125.00432617 160.30747803 125.44615234 160.98995605 125.90136719 161.69311523 C128.29973817 165.39329682 130.71102886 169.08463002 133.1328125 172.76953125 C133.64384521 173.55054199 134.15487793 174.33155273 134.68139648 175.13623047 C135.66665939 176.64167514 136.65561214 178.14471302 137.64868164 179.64501953 C141 184.7749019 141 184.7749019 141 187 C112.04521721 191.8960205 112.04521721 191.8960205 103.25012207 185.78393555 C95.93020322 178.8079055 92.08059176 168.48662336 88.0546875 159.40966797 C85.21834507 153.13705351 81.58346709 147.37812709 77.91513062 141.56677246 C76.18891965 138.82039092 74.51349123 136.04346523 72.83203125 133.26953125 C72.17283691 132.24939941 71.51364258 131.22926758 70.83447266 130.17822266 C69 127 69 127 67.75537109 123.34912109 C66.27661177 119.02006095 66.27661177 119.02006095 61 114 C51.43 113.67 41.86 113.34 32 113 C32 137.42 32 161.84 32 187 C21.44 187 10.88 187 0 187 C0 125.29 0 63.58 0 0 Z M32 27 C32 46.8 32 66.6 32 87 C59.67788324 88.63643895 59.67788324 88.63643895 84.875 77.8125 C91.0607137 70.94110577 93.10314784 63.12858343 93 54 C92.28821594 45.4077495 89.3285028 39.25453607 83.1875 33.25 C68.31822527 24.0541173 48.49329751 26.7156328 32 27 Z " fill="#FFFFFF" transform="translate(513,117)"/>
<path d="M0 0 C10.23 0 20.46 0 31 0 C31 65.67 31 131.34 31 199 C22.75 199 14.5 199 6 199 C2 185.5 2 185.5 2 181 C1.319375 181.680625 0.63875 182.36125 -0.0625 183.0625 C-0.52914062 183.52011719 -0.99578125 183.97773438 -1.4765625 184.44921875 C-3.01742633 185.98064822 -3.01742633 185.98064822 -4.3984375 187.64453125 C-11.2519554 195.3503902 -22.66761813 201.15971593 -33 202 C-49.46931451 202.88934298 -64.22929614 200.89440285 -77.1875 189.8125 C-91.71864209 175.98741654 -97.44986066 156.57614296 -98.06640625 136.87841797 C-98.65664034 112.88048358 -96.5210424 87.44347657 -79.26171875 69.06640625 C-65.7383129 56.71082474 -50.91692821 54.33376619 -33.36816406 54.859375 C-28.62152577 55.14123723 -24.39342784 56.23649493 -20 58 C-18.96939453 58.38285156 -18.96939453 58.38285156 -17.91796875 58.7734375 C-10.38593654 62.01206279 -4.70281512 68.27674835 1 74 C0.8934182 73.06742622 0.8934182 73.06742622 0.78468323 72.11601257 C-0.04460488 64.11561036 -0.12969579 56.18078015 -0.09765625 48.14453125 C-0.09578619 46.74777782 -0.09436507 45.35102373 -0.09336853 43.95426941 C-0.0895896 40.31625488 -0.07980005 36.67828165 -0.06866455 33.0402832 C-0.05834978 29.31266854 -0.05379437 25.58504687 -0.04882812 21.85742188 C-0.03870609 14.57157837 -0.01912296 7.28584758 0 0 Z M-54 88 C-66.54488329 102.61241417 -67.02258612 121.72506978 -66 140 C-64.96795479 151.43545125 -61.63458812 162.02596454 -53.0625 170 C-45.87464976 175.73381947 -38.13137594 177.62150726 -29 177 C-19.85475305 175.85139188 -12.14971017 173.41973933 -6.3125 165.98046875 C0.90846477 155.08454869 1.41112219 143.10745073 1.375 130.4375 C1.37445618 129.72512177 1.37391235 129.01274353 1.37335205 128.27877808 C1.31993429 113.1015096 0.42534696 99.11688057 -10.4375 87.45703125 C-22.18295875 76.57333171 -42.46497269 77.66054174 -54 88 Z " fill="#FFFFFF" transform="translate(1018,105)"/>
<path d="M0 0 C2.51757624 2.20287921 4.89778689 4.48177829 7.25 6.859375 C7.80171875 7.37757813 8.3534375 7.89578125 8.921875 8.4296875 C17.27217823 17.00446124 22.26071857 30.30181431 24.25 41.859375 C24.52263672 43.40625 24.52263672 43.40625 24.80078125 44.984375 C27.43153651 67.67749862 25.34921939 93.00092544 11.25 111.859375 C-0.15447118 124.99070616 -14.2200012 133.17221549 -31.75 134.859375 C-52.29284887 136.19512078 -71.53424815 132.97388272 -87.6875 119.109375 C-101.80290109 105.40852313 -108.37147214 86.24005239 -108.953125 66.86328125 C-109.30571431 42.49668225 -105.60337642 22.55728837 -88.95703125 3.84375 C-66.94823454 -17.72778585 -23.89168346 -18.5975036 0 0 Z M-65.46484375 21.3203125 C-75.32158558 31.60342738 -77.14692983 46.90542695 -77.125 60.484375 C-77.12338867 61.53109375 -77.12177734 62.5778125 -77.12011719 63.65625 C-76.90841318 77.17209793 -74.46391219 90.83282103 -65.125 101.109375 C-57.99387077 107.81869991 -49.38498104 109.9538356 -39.75 109.859375 C-30.88785509 109.27601252 -23.28218073 106.40130235 -16.93359375 100.0390625 C-5.45243461 85.82429404 -5.57941724 66.19277921 -6.75 48.859375 C-8.10809227 37.72693595 -11.65483835 26.60257894 -20.6875 19.421875 C-34.41280446 10.27167202 -52.6679914 10.4182105 -65.46484375 21.3203125 Z " fill="#FFFFFF" transform="translate(757.75,172.140625)"/>
<path d="M0 0 C8.52115187 7.8366659 12.92348928 18.07366523 13.75099564 29.57843208 C13.81437924 32.32715182 13.81798186 35.06922887 13.79736328 37.81860352 C13.79765533 38.85379623 13.79794739 39.88898895 13.79824829 40.95555115 C13.79686448 44.34805942 13.78134808 47.740343 13.765625 51.1328125 C13.7618915 53.49649434 13.75904612 55.86017774 13.75704956 58.22386169 C13.74943968 64.42327196 13.72981397 70.62258744 13.7076416 76.82196045 C13.68712609 83.15668455 13.67803566 89.49142408 13.66796875 95.82617188 C13.64656552 108.23963152 13.61140499 120.65299615 13.5703125 133.06640625 C6.3103125 133.06640625 -0.9496875 133.06640625 -8.4296875 133.06640625 C-11.8046875 124.06640625 -11.8046875 124.06640625 -13.1171875 119.56640625 C-13.36855469 118.71046875 -13.61992188 117.85453125 -13.87890625 116.97265625 C-14.06066406 116.34359375 -14.24242187 115.71453125 -14.4296875 115.06640625 C-15.10773438 115.79085937 -15.78578125 116.5153125 -16.484375 117.26171875 C-28.50676785 129.86833667 -41.17948865 135.96047285 -58.72143555 136.48803711 C-70.77153923 136.56582604 -81.20084956 134.76587242 -91.4296875 128.06640625 C-92.3165625 127.48890625 -93.2034375 126.91140625 -94.1171875 126.31640625 C-102.75178957 117.91517181 -106.47479546 107.13021634 -106.8515625 95.23974609 C-106.93595633 82.4883663 -104.40356327 72.83638656 -95.71875 63.16015625 C-75.75828485 43.95768344 -42.10439178 46.66502034 -16.4296875 46.06640625 C-17.27584088 30.75222985 -17.27584088 30.75222985 -25.2421875 18.19140625 C-33.94023711 12.39270651 -45.62592154 12.85336432 -55.60546875 14.7890625 C-63.04149131 16.45568087 -70.05642271 18.90450135 -76.9765625 22.11328125 C-79.4296875 23.06640625 -79.4296875 23.06640625 -83.4296875 23.06640625 C-84.93574152 19.77747622 -86.43349282 16.48483179 -87.9296875 13.19140625 C-88.35894531 12.25425781 -88.78820312 11.31710938 -89.23046875 10.3515625 C-89.63652344 9.45566406 -90.04257812 8.55976563 -90.4609375 7.63671875 C-90.83798828 6.80930176 -91.21503906 5.98188477 -91.60351562 5.12939453 C-92.4296875 3.06640625 -92.4296875 3.06640625 -92.4296875 1.06640625 C-65.56792268 -11.65006752 -25.56167378 -20.34248958 0 0 Z M-68.4296875 76.06640625 C-73.97799454 82.84767042 -75.27906131 89.4311059 -74.4296875 98.06640625 C-72.81035914 103.38202761 -70.20463239 107.11048798 -65.4296875 110.06640625 C-55.84003891 113.87466958 -45.13249851 113.19441152 -35.72265625 109.19140625 C-28.03281381 105.41853636 -21.50953186 99.8736427 -18.5546875 91.62890625 C-16.21033654 83.20074881 -16.29734314 74.7570193 -16.4296875 66.06640625 C-44.07085652 65.15759126 -44.07085652 65.15759126 -68.4296875 76.06640625 Z " fill="#FFFFFF" transform="translate(893.4296875,170.93359375)"/>
<path d="M0 0 C8.18544134 7.72848709 11.89834435 18.38230829 12.41101074 29.46206665 C12.57591534 35.98151072 12.51296831 42.49901681 12.453125 49.01953125 C12.4456528 51.42233303 12.4399645 53.82514096 12.43597412 56.22795105 C12.42079502 62.51292118 12.38158027 68.79751404 12.3371582 75.08233643 C12.29603811 81.51121927 12.27792751 87.94016382 12.2578125 94.36914062 C12.21507805 106.95461843 12.14479191 119.53971863 12.0625 132.125 C4.8025 132.125 -2.4575 132.125 -9.9375 132.125 C-11.9175 126.185 -13.8975 120.245 -15.9375 114.125 C-17.67 115.98125 -19.4025 117.8375 -21.1875 119.75 C-31.89099125 130.68244294 -44.85636861 135.04177133 -60.01367188 135.4765625 C-74.56152763 135.61369861 -86.72861465 132.94626592 -97.75 122.875 C-106.67515265 113.29730081 -108.42608823 101.26963051 -108.1796875 88.6484375 C-107.41209423 77.48119345 -103.93316158 69.01708969 -95.90234375 61.125 C-78.84198505 46.75838214 -54.00720049 46.15881392 -32.8125 45.5625 C-31.36457378 45.51919844 -29.91665698 45.47558094 -28.46875 45.43164062 C-24.95843422 45.32578894 -21.44801087 45.22419761 -17.9375 45.125 C-18.16778652 42.28883976 -18.42109133 39.45781218 -18.6875 36.625 C-18.7803125 35.43777344 -18.7803125 35.43777344 -18.875 34.2265625 C-19.56304267 27.23146207 -21.26428029 21.33331193 -26.8125 16.75 C-38.78830514 10.52258133 -52.62298426 12.29465092 -65.19140625 15.8984375 C-69.77053957 17.39775748 -74.13569857 19.19844373 -78.484375 21.26953125 C-81.29368437 22.24921079 -82.22506907 22.25805758 -84.9375 21.125 C-86.21777344 19.17553711 -86.21777344 19.17553711 -87.296875 16.65234375 C-87.69003906 15.75322266 -88.08320312 14.85410156 -88.48828125 13.92773438 C-88.88402344 12.98220703 -89.27976562 12.03667969 -89.6875 11.0625 C-90.09871094 10.11310547 -90.50992187 9.16371094 -90.93359375 8.18554688 C-91.94835966 5.83742577 -92.948875 3.48421875 -93.9375 1.125 C-90.35433183 -1.7007186 -86.69816528 -3.32031739 -82.4375 -4.875 C-81.37607788 -5.26691528 -81.37607788 -5.26691528 -80.29321289 -5.66674805 C-55.35707096 -14.68201425 -22.01515022 -17.41284511 0 0 Z M-69.765625 75.8359375 C-74.57958689 81.46985993 -76.38828631 86.37476373 -76.1875 93.81640625 C-75.64291161 98.84533965 -74.24044892 102.74759685 -70.75 106.4375 C-61.74292467 111.8417452 -53.0215306 112.41456868 -42.71875 110.5390625 C-33.75843319 108.0218601 -26.45014467 102.53097266 -21.4375 94.625 C-17.29175921 84.95160483 -17.7236368 75.47360239 -17.9375 65.125 C-45.70024981 64.22243808 -45.70024981 64.22243808 -69.765625 75.8359375 Z " fill="#FFFFFF" transform="translate(1278.9375,171.875)"/>
<path d="M0 0 C-0.94266621 5.12330886 -2.56215827 9.85491432 -4.3125 14.75 C-4.60833984 15.62527344 -4.90417969 16.50054687 -5.20898438 17.40234375 C-5.65661133 18.64951172 -5.65661133 18.64951172 -6.11328125 19.921875 C-6.37923096 20.68081055 -6.64518066 21.43974609 -6.91918945 22.22167969 C-8 24 -8 24 -9.88574219 24.81494141 C-13.43583934 25.12567739 -16.62277462 23.76113194 -19.9375 22.625 C-32.19531269 18.5353173 -45.42237532 16.41735216 -57.67578125 21.765625 C-66.30891687 26.35061804 -70.87469802 33.82151563 -74 43 C-75.92190829 50.58651922 -76.35642896 58.07635373 -76.3125 65.875 C-76.30686035 66.9271167 -76.3012207 67.9792334 -76.29541016 69.06323242 C-76.09656731 81.8019715 -74.09694277 94.02205744 -65.30078125 103.91015625 C-57.26209913 111.26238911 -47.81352876 112.47701123 -37.25 112.28125 C-26.70219634 111.79111042 -16.3835138 108.70736883 -7.00390625 103.953125 C-5 103 -5 103 -3 103 C-3 111.91 -3 120.82 -3 130 C-14.3081761 135.65408805 -14.3081761 135.65408805 -18.625 136.75 C-19.46289062 136.97171875 -20.30078125 137.1934375 -21.1640625 137.421875 C-41.23573735 141.51362139 -64.43932247 140.5424364 -82.2421875 129.625 C-84.26649052 128.17569355 -86.1336992 126.6471963 -88 125 C-88.99966797 124.13955078 -88.99966797 124.13955078 -90.01953125 123.26171875 C-99.24492198 114.74190283 -104.10120971 104.0612983 -107 92 C-107.22558594 91.07703125 -107.45117188 90.1540625 -107.68359375 89.203125 C-112.31270132 65.57871396 -110.56623136 37.47563592 -97 17 C-86.68585799 2.41350748 -72.41854942 -3.88191021 -55.30859375 -7.58203125 C-36.02844519 -10.01765805 -17.80479076 -7.59631039 0 0 Z " fill="#FFFFFF" transform="translate(1172,168)"/>
<path d="M0 0 C37.80137757 -0.78209747 70.50842628 13.0559652 98 39 C98.73734375 39.67289063 99.4746875 40.34578125 100.234375 41.0390625 C115.5099176 55.50207624 126.89070954 74.97998703 133 95 C133.44485762 96.38426085 133.89019136 97.76836876 134.3359375 99.15234375 C138.58788215 112.64373976 140 124.70664391 140 139 C126.8 139 113.6 139 100 139 C99.690625 134.359375 99.690625 134.359375 99.375 129.625 C97.10663707 102.91220673 83.78868963 79.6987077 64 62 C56.23039519 55.52115211 47.15358748 51.17001813 38 47 C36.91203125 46.50113281 35.8240625 46.00226563 34.703125 45.48828125 C23.55441841 40.9608187 11.893122 40.26949055 0 39 C0 26.13 0 13.26 0 0 Z " fill="#000101" transform="translate(219,20)"/>
<path d="M0 0 C24.58902451 0 45.49346167 8.9609023 63.18359375 26.09375 C76.63958666 39.6637381 83.72567336 55.70389777 88 74 C88.18981445 74.75700195 88.37962891 75.51400391 88.57519531 76.29394531 C88.75920898 77.05545898 88.94322266 77.81697266 89.1328125 78.6015625 C89.2992627 79.27783691 89.46571289 79.95411133 89.63720703 80.65087891 C90.11321185 83.73305813 90 86.88128082 90 90 C77.13 90 64.26 90 51 90 C50.34 85.71 49.68 81.42 49 77 C47.94986485 74.04698836 46.99788698 71.59205928 45.5625 68.875 C45.21396973 68.2054126 44.86543945 67.5358252 44.50634766 66.84594727 C37.92385841 54.86799857 28.51767266 48.2424441 16 43 C10.72 41.68 5.44 40.36 0 39 C0 26.13 0 13.26 0 0 Z " fill="#000101" transform="translate(219,70)"/>
<path d="M0 0 C6.74082813 5.87286196 10.55344446 12.85127366 11.203125 21.796875 C11.36387354 31.92403328 9.61310142 39.02130505 3.09375 46.921875 C-3.48331327 53.44985571 -11.57281757 57.00137425 -20.75 57.375 C-30.81018804 57.13902028 -37.63452065 53.435109 -44.79296875 46.45703125 C-51.94484465 38.49503135 -52.98098573 30.68714718 -52.48046875 20.29296875 C-51.76429395 12.00013356 -47.85849763 6.01945128 -41.8203125 0.46484375 C-28.4663926 -10.28133643 -13.65751757 -8.96380496 0 0 Z " fill="#000101" transform="translate(238,137)"/>
<path d="M0 0 C2.31 0 4.62 0 7 0 C7.28852216 5.90396148 7.57319787 11.80809207 7.85449219 17.71240234 C7.95047061 19.71603252 8.04745364 21.71961486 8.14550781 23.72314453 C8.6555427 34.1580419 9.14168987 44.55037199 9 55 C5.04 55 1.08 55 -3 55 C-2.41570438 36.62544024 -1.36677099 18.33104495 0 0 Z " fill="#F4F4F4" transform="translate(214,379)"/>
<path d="M0 0 C1.32 0 2.64 0 4 0 C4.95468258 6.37457348 5.1202324 12.56061653 5.0625 19 C5.05798828 19.96550781 5.05347656 20.93101562 5.04882812 21.92578125 C5.03715417 24.28392089 5.02078021 26.64192602 5 29 C3.02 29 1.04 29 -1 29 C-0.67 19.43 -0.34 9.86 0 0 Z " fill="#EEEEEE" transform="translate(215,321)"/>
</svg>
