<svg width="159" height="159" viewBox="0 0 159 159" fill="none" xmlns="http://www.w3.org/2000/svg">
<g filter="url(#filter0_d_99_1206)">
<path d="M39.0245 29C39.0245 20.1634 46.188 13 55.0245 13H103.025C111.861 13 119.025 20.1634 119.025 29V77C119.025 85.8366 111.861 93 103.025 93H55.0245C46.188 93 39.0245 85.8366 39.0245 77V29Z" fill="url(#paint0_linear_99_1206)" shape-rendering="crispEdges"/>
<path d="M84.8195 54.4832L87.3445 68.6932C87.3728 68.8605 87.3493 69.0325 87.2772 69.1861C87.2051 69.3397 87.0878 69.4676 86.941 69.5528C86.7943 69.638 86.625 69.6763 86.4558 69.6627C86.2867 69.649 86.1257 69.5841 85.9945 69.4765L80.0278 64.9982C79.7398 64.783 79.3899 64.6667 79.0303 64.6667C78.6708 64.6667 78.3209 64.783 78.0328 64.9982L72.0562 69.4748C71.925 69.5822 71.7643 69.6471 71.5953 69.6607C71.4264 69.6744 71.2573 69.6362 71.1106 69.5513C70.9639 69.4663 70.8466 69.3387 70.7744 69.1854C70.7021 69.0321 70.6783 68.8603 70.7062 68.6932L73.2295 54.4832" stroke="white" stroke-width="3.33333" stroke-linecap="round" stroke-linejoin="round"/>
<path d="M79.0245 56.3333C84.5474 56.3333 89.0245 51.8561 89.0245 46.3333C89.0245 40.8104 84.5474 36.3333 79.0245 36.3333C73.5017 36.3333 69.0245 40.8104 69.0245 46.3333C69.0245 51.8561 73.5017 56.3333 79.0245 56.3333Z" stroke="white" stroke-width="3.33333" stroke-linecap="round" stroke-linejoin="round"/>
</g>
<defs>
<filter id="filter0_d_99_1206" x="3.43323e-05" y="-1.90735e-06" width="158.049" height="158.049" filterUnits="userSpaceOnUse" color-interpolation-filters="sRGB">
<feFlood flood-opacity="0" result="BackgroundImageFix"/>
<feColorMatrix in="SourceAlpha" type="matrix" values="0 0 0 0 0 0 0 0 0 0 0 0 0 0 0 0 0 0 127 0" result="hardAlpha"/>
<feMorphology radius="12" operator="erode" in="SourceAlpha" result="effect1_dropShadow_99_1206"/>
<feOffset dy="26.0245"/>
<feGaussianBlur stdDeviation="25.5123"/>
<feComposite in2="hardAlpha" operator="out"/>
<feColorMatrix type="matrix" values="0 0 0 0 0.0235294 0 0 0 0 0.713726 0 0 0 0 0.831373 0 0 0 0.62 0"/>
<feBlend mode="normal" in2="BackgroundImageFix" result="effect1_dropShadow_99_1206"/>
<feBlend mode="normal" in="SourceGraphic" in2="effect1_dropShadow_99_1206" result="shape"/>
</filter>
<linearGradient id="paint0_linear_99_1206" x1="39.0245" y1="13" x2="119.025" y2="93" gradientUnits="userSpaceOnUse">
<stop stop-color="#00D3F3"/>
<stop offset="1" stop-color="#2B7FFF"/>
</linearGradient>
</defs>
</svg>
